<svg xmlns="http://www.w3.org/2000/svg" xmlns:xlink="http://www.w3.org/1999/xlink" width="1920" zoomAndPan="magnify" viewBox="0 0 1440 809.999993" height="1080" preserveAspectRatio="xMidYMid meet" version="1.0"><path fill="#000000" d="M 539.953125 684.34375 C 534.636719 684.34375 530.289062 679.992188 530.289062 674.679688 L 530.289062 560.621094 L 407.054688 560.621094 L 407.054688 674.679688 C 407.054688 687.726562 387.726562 687.726562 387.726562 674.679688 L 387.726562 550.953125 C 387.726562 545.636719 391.589844 541.289062 397.390625 541.289062 L 539.953125 541.289062 C 545.269531 541.289062 549.621094 545.636719 549.621094 550.953125 L 549.621094 674.679688 C 549.621094 679.992188 545.269531 684.34375 539.953125 684.34375 Z M 539.953125 684.34375 " fill-opacity="1" fill-rule="evenodd"/><path fill="#000000" d="M 442.816406 621.03125 C 437.5 621.03125 433.152344 616.683594 433.152344 611.367188 L 433.152344 550.953125 C 433.152344 538.390625 452.484375 538.390625 452.484375 550.953125 L 452.484375 590.101562 C 469.398438 575.121094 467.945312 575.121094 484.378906 590.101562 L 484.378906 550.953125 C 484.378906 538.390625 503.707031 538.390625 503.707031 550.953125 L 503.707031 611.367188 C 503.707031 620.066406 494.042969 624.414062 487.761719 618.617188 L 468.429688 601.699219 C 461.179688 608.464844 449.101562 621.03125 442.816406 621.03125 Z M 442.816406 621.03125 " fill-opacity="1" fill-rule="evenodd"/><path fill="#000000" d="M 625.007812 765.054688 L 566.535156 765.054688 C 553.484375 765.054688 553.484375 745.722656 566.535156 745.722656 L 615.34375 745.722656 L 615.34375 509.875 L 321.515625 509.875 L 321.515625 745.722656 L 357.761719 745.722656 C 370.328125 745.722656 370.328125 765.054688 357.761719 765.054688 L 311.851562 765.054688 C 306.535156 765.054688 302.1875 760.703125 302.1875 755.386719 L 302.1875 500.207031 C 302.1875 495.375 306.535156 490.542969 311.851562 490.542969 L 625.007812 490.542969 C 630.808594 490.542969 634.675781 495.375 634.675781 500.207031 L 634.675781 755.386719 C 634.675781 761.1875 630.808594 765.054688 625.007812 765.054688 Z M 477.128906 765.054688 L 446.683594 765.054688 C 434.117188 765.054688 434.117188 745.722656 446.683594 745.722656 L 477.128906 745.722656 C 489.695312 745.722656 489.695312 765.054688 477.128906 765.054688 Z M 477.128906 765.054688 " fill-opacity="1" fill-rule="evenodd"/><path fill="#000000" d="M 625.007812 684.34375 L 311.851562 684.34375 C 299.289062 684.34375 299.289062 665.011719 311.851562 665.011719 L 625.007812 665.011719 C 638.058594 665.011719 638.058594 684.34375 625.007812 684.34375 Z M 625.007812 684.34375 " fill-opacity="1" fill-rule="evenodd"/><path fill="#000000" d="M 521.589844 810 C 491.628906 810 467.464844 785.351562 467.464844 755.386719 C 467.464844 725.421875 491.628906 701.257812 521.589844 701.257812 C 551.550781 701.257812 576.199219 725.421875 576.199219 755.386719 C 576.199219 785.351562 551.550781 810 521.589844 810 Z M 521.589844 720.589844 C 502.257812 720.589844 486.792969 736.054688 486.792969 755.386719 C 486.792969 774.71875 502.257812 790.667969 521.589844 790.667969 C 540.921875 790.667969 556.867188 774.71875 556.867188 755.386719 C 556.867188 736.054688 540.921875 720.589844 521.589844 720.589844 Z M 521.589844 720.589844 " fill-opacity="1" fill-rule="evenodd"/><path fill="#000000" d="M 402.222656 810 C 372.261719 810 348.097656 785.351562 348.097656 755.386719 C 348.097656 725.421875 372.261719 701.257812 402.222656 701.257812 C 432.183594 701.257812 456.832031 725.421875 456.832031 755.386719 C 456.832031 785.351562 432.183594 810 402.222656 810 Z M 402.222656 720.589844 C 382.890625 720.589844 367.425781 736.054688 367.425781 755.386719 C 367.425781 774.71875 382.890625 790.667969 402.222656 790.667969 C 421.554688 790.667969 437.5 774.71875 437.5 755.386719 C 437.5 736.054688 421.554688 720.589844 402.222656 720.589844 Z M 402.222656 720.589844 " fill-opacity="1" fill-rule="evenodd"/><path fill="#000000" d="M 783.519531 765.054688 L 749.207031 765.054688 C 736.160156 765.054688 736.160156 745.722656 749.207031 745.722656 L 773.855469 745.722656 L 773.855469 648.578125 L 710.0625 545.636719 L 625.007812 545.636719 C 612.445312 545.636719 612.445312 526.308594 625.007812 526.308594 L 715.378906 526.308594 C 718.761719 526.308594 721.664062 528.238281 723.59375 530.65625 L 791.734375 640.847656 C 792.703125 642.296875 793.1875 643.746094 793.1875 645.679688 L 793.1875 755.386719 C 793.1875 761.1875 788.835938 765.054688 783.519531 765.054688 Z M 659.804688 765.054688 L 625.007812 765.054688 C 612.445312 765.054688 612.445312 745.722656 625.007812 745.722656 L 659.804688 745.722656 C 672.367188 745.722656 672.367188 765.054688 659.804688 765.054688 Z M 659.804688 765.054688 " fill-opacity="1" fill-rule="evenodd"/><path fill="#000000" d="M 704.265625 810 C 674.300781 810 650.136719 785.351562 650.136719 755.386719 C 650.136719 725.421875 674.300781 701.257812 704.265625 701.257812 C 734.226562 701.257812 758.875 725.421875 758.875 755.386719 C 758.875 785.351562 734.226562 810 704.265625 810 Z M 704.265625 720.589844 C 684.933594 720.589844 669.46875 736.054688 669.46875 755.386719 C 669.46875 774.71875 684.933594 790.667969 704.265625 790.667969 C 723.59375 790.667969 739.542969 774.71875 739.542969 755.386719 C 739.542969 736.054688 723.59375 720.589844 704.265625 720.589844 Z M 704.265625 720.589844 " fill-opacity="1" fill-rule="evenodd"/><path fill="#000000" d="M 783.519531 655.347656 L 625.007812 655.347656 C 612.445312 655.347656 612.445312 636.015625 625.007812 636.015625 L 783.519531 636.015625 C 796.085938 636.015625 796.085938 655.347656 783.519531 655.347656 Z M 783.519531 655.347656 " fill-opacity="1" fill-rule="evenodd"/><path fill="#000000" d="M 422.519531 189.449219 C 383.859375 189.449219 358.730469 147.40625 378.542969 113.574219 C 385.308594 101.492188 396.421875 93.277344 409.472656 89.894531 L 736.160156 2.417969 C 745.34375 0 753.558594 0 762.257812 2.417969 L 1089.429688 89.894531 C 1132.4375 101.492188 1140.652344 159.96875 1101.507812 182.683594 C 1089.910156 189.449219 1076.378906 190.902344 1063.332031 187.519531 L 749.207031 103.425781 L 435.566406 187.519531 C 431.21875 188.96875 426.871094 189.449219 422.519531 189.449219 Z M 749.207031 19.816406 C 746.792969 19.816406 743.890625 20.296875 741.476562 20.78125 L 414.304688 108.742188 C 387.726562 115.507812 382.410156 151.753906 406.574219 165.769531 C 413.820312 170.121094 422.519531 171.085938 430.734375 169.152344 L 746.792969 84.09375 C 748.726562 83.609375 750.175781 83.609375 752.109375 84.09375 L 1068.164062 169.152344 C 1108.273438 179.785156 1124.222656 119.375 1084.59375 108.742188 L 757.425781 20.78125 C 754.523438 20.296875 752.109375 19.816406 749.207031 19.816406 Z M 749.207031 19.816406 " fill-opacity="1" fill-rule="evenodd"/><path fill="#000000" d="M 1052.699219 684.34375 L 783.519531 684.34375 C 770.957031 684.34375 770.957031 665.011719 783.519531 665.011719 L 1043.035156 665.011719 L 1043.035156 174.953125 C 1043.035156 161.902344 1062.363281 161.902344 1062.363281 174.953125 L 1062.363281 674.679688 C 1062.363281 679.992188 1058.015625 684.34375 1052.699219 684.34375 Z M 446.199219 509.875 C 440.882812 509.875 436.535156 505.523438 436.535156 500.207031 L 436.535156 174.953125 C 436.535156 161.902344 455.867188 161.902344 455.867188 174.953125 L 455.867188 500.207031 C 455.867188 506.007812 451.515625 509.875 446.199219 509.875 Z M 446.199219 509.875 " fill-opacity="1" fill-rule="evenodd"/><path fill="#000000" d="M 929.949219 684.34375 C 924.632812 684.34375 920.285156 679.992188 920.285156 674.679688 L 920.285156 297.226562 C 920.285156 284.175781 939.617188 284.175781 939.617188 297.226562 L 939.617188 674.679688 C 939.617188 679.992188 935.265625 684.34375 929.949219 684.34375 Z M 568.464844 509.875 C 563.152344 509.875 558.800781 505.523438 558.800781 500.207031 L 558.800781 297.226562 C 558.800781 284.175781 578.132812 284.175781 578.132812 297.226562 L 578.132812 500.207031 C 578.132812 506.007812 573.78125 509.875 568.464844 509.875 Z M 568.464844 509.875 " fill-opacity="1" fill-rule="evenodd"/><path fill="#000000" d="M 964.261719 306.890625 L 534.636719 306.890625 C 529.320312 306.890625 524.972656 302.542969 524.972656 297.226562 L 524.972656 247.445312 C 524.972656 242.128906 529.320312 237.78125 534.636719 237.78125 L 964.261719 237.78125 C 969.578125 237.78125 973.925781 242.128906 973.925781 247.445312 L 973.925781 297.226562 C 973.925781 302.058594 969.578125 306.890625 964.261719 306.890625 Z M 544.304688 287.558594 L 954.597656 287.558594 L 954.597656 257.113281 L 544.304688 257.113281 Z M 544.304688 287.558594 " fill-opacity="1" fill-rule="evenodd"/><path fill="#000000" d="M 929.949219 351.835938 L 568.464844 351.835938 C 555.902344 351.835938 555.902344 332.507812 568.464844 332.507812 L 929.949219 332.507812 C 943 332.507812 943 351.835938 929.949219 351.835938 Z M 929.949219 351.835938 " fill-opacity="1" fill-rule="evenodd"/><path fill="#000000" d="M 824.597656 158.035156 L 673.820312 158.035156 C 661.253906 158.035156 661.253906 138.707031 673.820312 138.707031 L 824.597656 138.707031 C 837.644531 138.707031 837.644531 158.035156 824.597656 158.035156 Z M 824.597656 158.035156 " fill-opacity="1" fill-rule="evenodd"/><path fill="#000000" d="M 824.597656 203.464844 L 673.820312 203.464844 C 661.253906 203.464844 661.253906 184.136719 673.820312 184.136719 L 824.597656 184.136719 C 837.644531 184.136719 837.644531 203.464844 824.597656 203.464844 Z M 824.597656 203.464844 " fill-opacity="1" fill-rule="evenodd"/></svg>