<svg xmlns="http://www.w3.org/2000/svg" xmlns:xlink="http://www.w3.org/1999/xlink" width="1920" zoomAndPan="magnify" viewBox="0 0 1440 809.999993" height="1080" preserveAspectRatio="xMidYMid meet" version="1.0"><path fill="#000000" d="M 600.578125 342.691406 L 709.617188 342.691406 L 709.617188 181.730469 L 600.578125 181.730469 Z M 631.730469 212.882812 L 678.460938 212.882812 L 678.460938 311.539062 L 631.730469 311.539062 Z M 631.730469 212.882812 " fill-opacity="1" fill-rule="nonzero"/><path fill="#000000" d="M 600.578125 550.382812 L 709.617188 550.382812 L 709.617188 389.421875 L 600.578125 389.421875 Z M 631.730469 420.578125 L 678.460938 420.578125 L 678.460938 519.230469 L 631.730469 519.230469 Z M 631.730469 420.578125 " fill-opacity="1" fill-rule="nonzero"/><path fill="#000000" d="M 392.882812 420.578125 L 501.921875 420.578125 L 501.921875 285.578125 L 392.882812 285.578125 Z M 424.039062 316.730469 L 470.769531 316.730469 L 470.769531 389.421875 L 424.039062 389.421875 Z M 424.039062 316.730469 " fill-opacity="1" fill-rule="nonzero"/><path fill="#000000" d="M 392.882812 576.347656 L 501.921875 576.347656 L 501.921875 441.347656 L 392.882812 441.347656 Z M 424.039062 472.5 L 470.769531 472.5 L 470.769531 545.191406 L 424.039062 545.191406 Z M 424.039062 472.5 " fill-opacity="1" fill-rule="nonzero"/><path fill="#000000" d="M 392.882812 732.117188 L 501.921875 732.117188 L 501.921875 597.117188 L 392.882812 597.117188 Z M 424.039062 628.269531 L 470.769531 628.269531 L 470.769531 700.960938 L 424.039062 700.960938 Z M 424.039062 628.269531 " fill-opacity="1" fill-rule="nonzero"/><path fill="#000000" d="M 839.421875 181.730469 L 730.382812 181.730469 L 730.382812 342.691406 L 839.421875 342.691406 Z M 808.269531 311.539062 L 761.539062 311.539062 L 761.539062 212.882812 L 808.269531 212.882812 Z M 808.269531 311.539062 " fill-opacity="1" fill-rule="nonzero"/><path fill="#000000" d="M 839.421875 389.421875 L 730.382812 389.421875 L 730.382812 550.382812 L 839.421875 550.382812 Z M 808.269531 519.230469 L 761.539062 519.230469 L 761.539062 420.578125 L 808.269531 420.578125 Z M 808.269531 519.230469 " fill-opacity="1" fill-rule="nonzero"/><path fill="#000000" d="M 1047.117188 285.578125 L 938.078125 285.578125 L 938.078125 420.578125 L 1047.117188 420.578125 Z M 1015.960938 389.421875 L 969.230469 389.421875 L 969.230469 316.730469 L 1015.960938 316.730469 Z M 1015.960938 389.421875 " fill-opacity="1" fill-rule="nonzero"/><path fill="#000000" d="M 1047.117188 441.347656 L 938.078125 441.347656 L 938.078125 576.347656 L 1047.117188 576.347656 Z M 1015.960938 545.191406 L 969.230469 545.191406 L 969.230469 472.5 L 1015.960938 472.5 Z M 1015.960938 545.191406 " fill-opacity="1" fill-rule="nonzero"/><path fill="#000000" d="M 1047.117188 597.117188 L 938.078125 597.117188 L 938.078125 732.117188 L 1047.117188 732.117188 Z M 1015.960938 700.960938 L 969.230469 700.960938 L 969.230469 628.269531 L 1015.960938 628.269531 Z M 1015.960938 700.960938 " fill-opacity="1" fill-rule="nonzero"/><path fill="#000000" d="M 917.308594 109.039062 L 943.269531 109.039062 L 943.269531 0 L 496.730469 0 L 496.730469 109.039062 L 522.691406 109.039062 L 522.691406 129.808594 L 315 129.808594 L 315 238.847656 L 340.960938 238.847656 L 340.960938 810 L 1099.039062 810 L 1099.039062 238.847656 L 1125 238.847656 L 1125 129.808594 L 917.308594 129.808594 Z M 527.882812 31.152344 L 912.117188 31.152344 L 912.117188 77.882812 L 527.882812 77.882812 Z M 346.152344 160.960938 L 522.691406 160.960938 L 522.691406 207.691406 L 346.152344 207.691406 Z M 372.117188 778.847656 L 372.117188 238.847656 L 522.691406 238.847656 L 522.691406 778.847656 Z M 631.730469 778.847656 L 631.730469 654.230469 L 704.421875 654.230469 L 704.421875 778.847656 Z M 735.578125 778.847656 L 735.578125 654.230469 L 808.269531 654.230469 L 808.269531 778.847656 Z M 886.152344 778.847656 L 839.421875 778.847656 L 839.421875 623.078125 L 600.578125 623.078125 L 600.578125 778.847656 L 553.847656 778.847656 L 553.847656 109.039062 L 886.152344 109.039062 Z M 1067.882812 778.847656 L 917.308594 778.847656 L 917.308594 238.847656 L 1067.882812 238.847656 Z M 1093.847656 160.960938 L 1093.847656 207.691406 L 917.308594 207.691406 L 917.308594 160.960938 Z M 1093.847656 160.960938 " fill-opacity="1" fill-rule="nonzero"/></svg>