<svg width="64" height="38" viewBox="0 0 64 38" fill="none" xmlns="http://www.w3.org/2000/svg">
<mask id="mask0_2017_589" style="mask-type:luminance" maskUnits="userSpaceOnUse" x="14" y="14" width="36" height="24">
<path d="M14.5334 14.3555H49.8793V37.6715H14.5334V14.3555Z" fill="white"/>
</mask>
<g mask="url(#mask0_2017_589)">
<path d="M48.8851 18.632H35.5368L31.9983 17.7022L30.3811 17.0969C30.3375 16.8081 29.6861 15.2279 29.5841 14.9348L28.9776 15.1956C29.1601 15.8185 29.9457 17.2213 29.733 17.8473L28.3891 23.6531C28.387 23.7256 28.2617 23.7355 28.2445 23.6604L27.217 20.5691C27.0139 19.7748 25.629 18.6542 25.1278 18.0709C25.0445 17.9848 24.9653 17.8946 24.8905 17.8002C24.8157 17.706 24.7455 17.608 24.6799 17.5063C24.6143 17.4046 24.5535 17.2998 24.4978 17.1916C24.442 17.0837 24.3915 16.9728 24.346 16.8596C24.3007 16.7461 24.261 16.6307 24.2264 16.5132C24.192 16.3956 24.1631 16.2766 24.1398 16.1561C24.1165 16.0355 24.099 15.914 24.0872 15.7916C24.0754 15.6692 24.0693 15.5464 24.0691 15.4232V14.3772H23.4141C23.396 14.6501 23.4177 15.4949 23.4297 15.7461L17.0273 20.0909C16.9063 20.174 16.7886 20.2617 16.6743 20.3546C16.5599 20.4474 16.4492 20.5449 16.3422 20.6471C16.2351 20.7492 16.1322 20.8557 16.0332 20.9664C15.9341 21.0772 15.8394 21.1919 15.7492 21.3107C15.6587 21.4294 15.5731 21.5519 15.4919 21.6778C15.4108 21.8038 15.3346 21.9328 15.2632 22.0653C15.1919 22.1977 15.1256 22.3327 15.0643 22.4707C15.0032 22.6087 14.9473 22.7489 14.8967 22.8916C14.846 23.0342 14.8009 23.1788 14.7611 23.3252C14.7216 23.4717 14.6874 23.6195 14.6589 23.7687C14.6302 23.9181 14.6073 24.0683 14.5901 24.2195C14.5729 24.3707 14.5613 24.5224 14.5556 24.6747C14.5499 24.8268 14.5499 24.9791 14.5554 25.1312C14.5611 25.2835 14.5726 25.4352 14.5898 25.5864C14.6068 25.7376 14.6297 25.8879 14.6582 26.0372C14.6865 26.1866 14.7207 26.3345 14.7603 26.4809L16.0787 31.2736C16.0875 31.3027 16.0973 31.3319 16.1077 31.3605C16.1183 31.3892 16.1295 31.4175 16.1415 31.4455C16.1537 31.4735 16.1664 31.5012 16.1801 31.5283C16.1936 31.5556 16.2078 31.5824 16.2229 31.6088C16.2381 31.635 16.2539 31.6608 16.2702 31.6863C16.2867 31.7116 16.3039 31.7365 16.3217 31.7607C16.3396 31.7851 16.358 31.8089 16.3773 31.832C16.3964 31.8551 16.4162 31.8778 16.4367 31.8996C16.457 31.9216 16.478 31.943 16.4995 31.9636C16.5212 31.9843 16.5433 32.0042 16.566 32.0235C16.5886 32.0429 16.6118 32.0614 16.6354 32.0794C16.6592 32.0972 16.6834 32.1144 16.708 32.1307C16.7327 32.1472 16.7578 32.1628 16.7834 32.1776C16.8089 32.1924 16.8348 32.2066 16.861 32.2198C16.8874 32.2331 16.9139 32.2456 16.9408 32.2571C16.9679 32.2687 16.9952 32.2795 17.0226 32.2896C17.0502 32.2995 17.0782 32.3086 17.1061 32.3169C17.1342 32.3249 17.1625 32.3325 17.191 32.3389C17.2195 32.3455 17.2481 32.351 17.2768 32.3557C17.3056 32.3605 17.3346 32.3643 17.3636 32.3673C17.3926 32.3702 17.4216 32.3724 17.4507 32.3735C17.4797 32.3748 17.5089 32.375 17.5381 32.3744C17.5672 32.3739 17.5962 32.3722 17.6254 32.3698C17.6544 32.3675 17.6834 32.3642 17.7122 32.3599C17.741 32.3559 17.7698 32.3508 17.7983 32.3449C17.8269 32.3389 17.8552 32.3321 17.8835 32.3244C17.9117 32.3167 17.9396 32.3081 17.9674 32.2987C17.9952 32.2894 18.0226 32.2791 18.0499 32.2679C18.0769 32.257 18.1039 32.245 18.1304 32.2322C18.1568 32.2196 18.183 32.206 18.2087 32.1915C18.2346 32.1772 18.2599 32.1622 18.2848 32.1463C18.3098 32.1303 18.3342 32.1136 18.3582 32.0962L21.9006 36C22.0172 36.1277 22.1398 36.2488 22.2679 36.3635C22.3962 36.4783 22.5295 36.586 22.6681 36.6866C22.8066 36.787 22.9495 36.8801 23.0969 36.9654C23.2441 37.0508 23.3952 37.1281 23.55 37.1975C23.7047 37.2668 23.8624 37.3278 24.0228 37.3804C24.1834 37.433 24.346 37.477 24.5108 37.5124C24.6754 37.5476 24.8414 37.5741 25.0087 37.5917C25.1759 37.6095 25.3436 37.6183 25.5117 37.6181C26.4983 37.7788 32.8613 35.3027 33.9181 35.0254C34.0559 34.9781 34.1974 34.9525 34.3424 34.9484C34.4874 34.9444 34.6299 34.9622 34.77 35.0018C35.6072 35.1911 36.8686 35.7478 37.7325 35.4535L41.7504 34.4769C41.7841 34.4683 41.8172 34.4582 41.8499 34.4463C41.8827 34.4346 41.9148 34.4214 41.9464 34.4065C41.978 34.3917 42.0089 34.3754 42.0389 34.3576C42.0691 34.3398 42.0985 34.3206 42.1271 34.3001C42.1556 34.2794 42.1832 34.2576 42.2099 34.2343C42.2365 34.211 42.2622 34.1866 42.2867 34.161C42.3113 34.1353 42.3348 34.1086 42.357 34.0807C42.3792 34.0527 42.4004 34.0239 42.4202 33.9939C42.44 33.964 42.4584 33.9332 42.4756 33.9015C42.4927 33.8698 42.5085 33.8375 42.523 33.8042C42.5372 33.771 42.5502 33.7373 42.5617 33.7028C42.5731 33.6684 42.5832 33.6336 42.5917 33.5982C42.6002 33.5628 42.6072 33.5271 42.6127 33.4912C42.6181 33.4551 42.6219 33.4188 42.6243 33.3825C42.6266 33.346 42.6275 33.3096 42.6268 33.2731C42.6259 33.2366 42.6236 33.2004 42.6197 33.1641C42.6158 33.1278 42.6105 33.0917 42.6035 33.0559C42.5964 33.0202 42.5881 32.9848 42.578 32.95C42.5679 32.915 42.5565 32.8808 42.5436 32.8469C42.5306 32.813 42.5164 32.7798 42.5006 32.7473C42.4848 32.7149 42.4676 32.6832 42.4492 32.6524C42.4306 32.6216 42.4108 32.5918 42.3898 32.5628C42.3688 32.5339 42.3466 32.506 42.3231 32.4792C42.2997 32.4523 42.275 32.4266 42.2495 32.4023C42.2238 32.3777 42.1973 32.3544 42.1697 32.3326C42.142 32.3106 42.1136 32.2901 42.0841 32.2709C42.0547 32.2516 42.0245 32.2339 41.9936 32.2176C41.9627 32.2012 41.9313 32.1864 41.899 32.173C41.8669 32.1596 41.8342 32.1479 41.8011 32.1377C41.7679 32.1274 41.7342 32.1188 41.7004 32.1118C41.6665 32.1048 41.6323 32.0995 41.598 32.0957C41.5636 32.092 41.529 32.0898 41.4945 32.0895H40.0335C40.0363 32.0352 40.0365 31.9808 40.0344 31.9265C40.0323 31.8723 40.028 31.8181 40.021 31.7642C40.0143 31.7103 40.0051 31.657 39.9934 31.604C39.9818 31.551 39.9679 31.4988 39.9518 31.4471C39.9356 31.3956 39.9172 31.3449 39.8966 31.295C39.8759 31.2454 39.853 31.1966 39.828 31.1492C39.8032 31.1015 39.7761 31.0553 39.7471 31.0104C39.7179 30.9655 39.687 30.9223 39.6542 30.8803C39.6212 30.8385 39.5867 30.7984 39.5502 30.7601C39.5138 30.7216 39.4757 30.6852 39.4361 30.6503C39.3964 30.6157 39.3554 30.5831 39.3129 30.5525C39.2703 30.5219 39.2266 30.4933 39.1815 30.4671C39.1365 30.4407 39.0903 30.4167 39.0431 30.3949C38.996 30.3731 38.948 30.3537 38.899 30.3366C38.8502 30.3196 38.8007 30.3051 38.7506 30.2928C38.7004 30.2807 38.6497 30.271 38.5986 30.2639L36.1377 29.9294C35.8063 29.8876 35.4761 29.8957 35.1467 29.9536V19.6925C35.1469 19.6684 35.1492 19.6443 35.1537 19.6205C35.158 19.5969 35.1648 19.5738 35.1735 19.5514C35.1823 19.5291 35.1931 19.5078 35.2058 19.4877C35.2186 19.4677 35.233 19.449 35.2492 19.432C35.2655 19.4147 35.283 19.3995 35.3021 19.386C35.3212 19.3726 35.3414 19.3612 35.3625 19.3519C35.3837 19.3427 35.4056 19.3356 35.428 19.331C35.4504 19.3262 35.4731 19.3238 35.496 19.3236H39.9471V23.1411C39.9473 23.1823 39.9492 23.2233 39.953 23.2642C39.9568 23.3051 39.9625 23.3458 39.9702 23.3861C39.9778 23.4266 39.9874 23.4663 39.9986 23.5057C40.0101 23.5451 40.0231 23.5838 40.0382 23.6217C40.0532 23.6599 40.0698 23.6969 40.0881 23.7332C40.1065 23.7694 40.1266 23.8048 40.1483 23.8389C40.1698 23.8732 40.1931 23.9062 40.2177 23.938C40.2426 23.9697 40.2686 24.0003 40.2962 24.0293C40.3238 24.0584 40.3526 24.0861 40.3828 24.1121C40.4129 24.1383 40.4441 24.1627 40.4766 24.1856C40.5089 24.2085 40.5424 24.2296 40.5768 24.249C40.6111 24.2684 40.6462 24.286 40.6823 24.3018C40.7183 24.3176 40.7549 24.3315 40.7922 24.3436C40.8295 24.3555 40.8672 24.3656 40.9054 24.3736C40.9436 24.3817 40.9822 24.3877 41.021 24.3918C41.0598 24.3958 41.0986 24.3978 41.1375 24.398H43.0804C43.1193 24.3978 43.1582 24.3958 43.1971 24.3918C43.2358 24.3877 43.2743 24.3817 43.3125 24.3736C43.3507 24.3656 43.3886 24.3555 43.4257 24.3434C43.4631 24.3315 43.4997 24.3176 43.5358 24.3018C43.5717 24.286 43.607 24.2684 43.6414 24.249C43.6757 24.2296 43.7091 24.2085 43.7414 24.1856C43.7738 24.1627 43.8051 24.1383 43.8353 24.1121C43.8653 24.0861 43.8941 24.0584 43.9217 24.0293C43.9493 24.0003 43.9754 23.9697 44.0002 23.938C44.0249 23.9062 44.0481 23.8732 44.0698 23.8389C44.0915 23.8048 44.1115 23.7694 44.1299 23.7332C44.1483 23.6969 44.165 23.6599 44.1799 23.6217C44.1948 23.5838 44.2078 23.5451 44.2193 23.5057C44.2306 23.4663 44.2401 23.4266 44.2478 23.3861C44.2554 23.3458 44.2611 23.3051 44.265 23.2642C44.2688 23.2232 44.2709 23.1823 44.2709 23.1411V19.3236H48.8851C48.908 19.3238 48.9306 19.3262 48.9532 19.331C48.9756 19.3356 48.9974 19.3427 49.0186 19.3519C49.0398 19.3612 49.0599 19.3726 49.079 19.386C49.098 19.3995 49.1157 19.4147 49.1318 19.432C49.1481 19.449 49.1625 19.4677 49.1754 19.4877C49.1881 19.5078 49.1988 19.5291 49.2077 19.5514C49.2164 19.5738 49.223 19.5969 49.2275 19.6205C49.232 19.6443 49.2342 19.6684 49.2342 19.6925V31.7206C49.2342 31.7448 49.232 31.7688 49.2275 31.7926C49.223 31.8162 49.2164 31.8393 49.2077 31.8617C49.1988 31.884 49.1881 31.9053 49.1754 31.9254C49.1625 31.9456 49.1481 31.9641 49.1318 31.9813C49.1157 31.9984 49.098 32.0136 49.079 32.0271C49.0599 32.0405 49.0398 32.0519 49.0186 32.0612C48.9974 32.0704 48.9756 32.0775 48.9532 32.0823C48.9306 32.0871 48.908 32.0895 48.8851 32.0895H43.2934V32.7811H48.8851C48.9179 32.7811 48.9507 32.7792 48.9835 32.7757C49.0162 32.7725 49.0486 32.7673 49.0809 32.7605C49.1132 32.7538 49.145 32.7451 49.1764 32.7351C49.208 32.725 49.2389 32.7133 49.2693 32.7001C49.2997 32.6867 49.3294 32.6718 49.3584 32.6555C49.3874 32.6392 49.4155 32.6213 49.4427 32.602C49.4702 32.5828 49.4966 32.5621 49.5219 32.5401C49.5474 32.5179 49.5717 32.4946 49.595 32.4701C49.6183 32.4455 49.6403 32.4199 49.6611 32.3931C49.682 32.3662 49.7016 32.3383 49.7198 32.3095C49.7381 32.2806 49.7551 32.2509 49.7705 32.2203C49.786 32.1897 49.8 32.1584 49.8127 32.1263C49.8252 32.0942 49.8363 32.0616 49.8459 32.0282C49.8554 31.9951 49.8636 31.9615 49.87 31.9275C49.8764 31.8934 49.8813 31.8591 49.8844 31.8245C49.8877 31.79 49.8893 31.7554 49.8894 31.7206V19.6925C49.8893 19.6577 49.8877 19.6231 49.8844 19.5886C49.8813 19.554 49.8764 19.5197 49.87 19.4856C49.8636 19.4516 49.8554 19.418 49.8459 19.3849C49.8363 19.3515 49.8252 19.3189 49.8127 19.2868C49.8 19.2547 49.786 19.2234 49.7705 19.1928C49.7551 19.1622 49.7381 19.1325 49.7198 19.1036C49.7016 19.0748 49.682 19.0469 49.6611 19.02C49.6403 18.9932 49.6183 18.9676 49.595 18.943C49.5717 18.9185 49.5474 18.8952 49.5219 18.873C49.4966 18.851 49.4702 18.8303 49.4427 18.8111C49.4155 18.7918 49.3874 18.7741 49.3584 18.7576C49.3294 18.7413 49.2997 18.7264 49.2693 18.713C49.2389 18.6998 49.208 18.6881 49.1764 18.678C49.145 18.668 49.1132 18.6595 49.0809 18.6526C49.0486 18.6458 49.0162 18.6407 48.9835 18.6374C48.9507 18.6339 48.9179 18.6322 48.8851 18.632ZM32.2842 19.1853L32.07 21.2722C32.069 21.2838 32.0674 21.2953 32.0651 21.3067C32.0629 21.318 32.0598 21.329 32.0561 21.34C32.0525 21.351 32.0481 21.3616 32.0431 21.3719C32.0382 21.3823 32.0325 21.3922 32.0264 21.4018C32.0202 21.4113 32.0134 21.4205 32.0061 21.4291C31.9986 21.4379 31.9908 21.4459 31.9825 21.4535C31.9742 21.461 31.9655 21.4679 31.9563 21.4743C31.9471 21.4808 31.9375 21.4864 31.9276 21.4916C31.9177 21.4965 31.9077 21.5009 31.8973 21.5046C31.8868 21.5082 31.8761 21.5112 31.8653 21.5134C31.8545 21.5156 31.8436 21.517 31.8327 21.5178C31.8217 21.5185 31.8108 21.5185 31.7999 21.5178C31.7889 21.5169 31.778 21.5154 31.7672 21.5132C31.7565 21.5108 31.7459 21.5079 31.7355 21.504C31.725 21.5004 31.715 21.496 31.7051 21.4908C31.6952 21.4857 31.6856 21.4798 31.6764 21.4734L29.8473 20.2656L30.369 18.0121C30.3825 17.954 30.3875 17.8952 30.3964 17.8367L31.7936 18.3592C31.8328 18.3738 31.8707 18.3918 31.907 18.4132C31.9434 18.4345 31.9778 18.4589 32.0105 18.4864C32.0429 18.5138 32.073 18.5439 32.1007 18.5767C32.1283 18.6097 32.1533 18.6447 32.1754 18.6819C32.1976 18.7191 32.2165 18.7579 32.2325 18.7986C32.2483 18.8393 32.261 18.8809 32.2702 18.9238C32.2795 18.9667 32.2853 19.0101 32.2877 19.0539C32.29 19.0979 32.2889 19.1417 32.2842 19.1853ZM24.6712 18.5666L26.1967 20.1335C26.2082 20.1452 26.2157 20.1602 26.2266 20.1723L24.3084 21.485C24.2778 21.5057 24.2457 21.5231 24.2118 21.537C24.178 21.5509 24.1433 21.5612 24.1075 21.568C24.0717 21.5746 24.0356 21.5775 23.9993 21.5768C23.9631 21.5759 23.9271 21.5713 23.8917 21.5629C23.8563 21.5546 23.8219 21.5425 23.7887 21.5271C23.7556 21.5115 23.724 21.4927 23.6945 21.4707C23.6648 21.4485 23.6374 21.4236 23.6124 21.3957C23.5874 21.3679 23.5653 21.3378 23.5459 21.3054L21.5184 17.866L23.5457 16.4903C23.592 16.6866 23.6509 16.8785 23.7224 17.0661C23.7938 17.2536 23.8771 17.4352 23.9723 17.6108C24.0674 17.7861 24.1735 17.954 24.2905 18.1142C24.4075 18.2741 24.5344 18.425 24.671 18.5666H24.6712ZM17.7585 31.6112C17.7332 31.6222 17.7075 31.6319 17.6811 31.6399C17.6549 31.6482 17.6283 31.6548 17.6014 31.6599C17.5745 31.6652 17.5474 31.6689 17.52 31.6711C17.4927 31.6733 17.4655 31.674 17.4381 31.6733C17.4108 31.6724 17.3835 31.6702 17.3565 31.6663C17.3292 31.6625 17.3025 31.6572 17.2757 31.6504C17.2492 31.6436 17.2229 31.6353 17.1973 31.6256C17.1714 31.6159 17.1462 31.6049 17.1216 31.5925C17.0967 31.58 17.0728 31.5661 17.0495 31.551C17.0262 31.5358 17.0037 31.5195 16.982 31.5019C16.9603 31.4843 16.9394 31.4655 16.9197 31.4457C16.8999 31.4257 16.8811 31.4048 16.8632 31.3828C16.8455 31.3608 16.8289 31.3377 16.8134 31.3139C16.7979 31.2901 16.7837 31.2655 16.7707 31.2401C16.7577 31.2148 16.7459 31.1888 16.7354 31.162C16.725 31.1352 16.7158 31.1081 16.7082 31.0803L15.3896 26.2877C15.3549 26.1591 15.3249 26.0292 15.2999 25.898C15.2749 25.7668 15.2549 25.6346 15.2398 25.5018C15.2247 25.3689 15.2146 25.2357 15.2096 25.1019C15.2047 24.9681 15.2047 24.8343 15.2098 24.7008C15.2148 24.567 15.2249 24.4336 15.2401 24.3007C15.2552 24.1678 15.2754 24.0359 15.3004 23.9047C15.3256 23.7735 15.3554 23.6435 15.3903 23.5149C15.4252 23.3863 15.465 23.2593 15.5094 23.1339C15.5539 23.0086 15.603 22.8852 15.6568 22.7641C15.7104 22.643 15.7688 22.5242 15.8315 22.4078C15.8941 22.2915 15.9611 22.178 16.0325 22.0674C16.1037 21.9567 16.179 21.8493 16.2585 21.7448C16.3379 21.6406 16.421 21.5398 16.508 21.4423C16.595 21.345 16.6856 21.2515 16.7795 21.1617C16.8736 21.0719 16.9709 20.9863 17.0714 20.9048C17.1719 20.8232 17.2754 20.7461 17.3816 20.6731L20.9667 18.2402L22.9893 21.6713C23.0164 21.7172 23.046 21.7608 23.0782 21.8026C23.1104 21.8442 23.1452 21.8836 23.1822 21.9208C23.2191 21.9578 23.2582 21.9922 23.2993 22.0241C23.3405 22.0558 23.3834 22.085 23.428 22.111C23.4726 22.137 23.5186 22.1601 23.566 22.1801C23.6134 22.2 23.6617 22.2167 23.7111 22.2301C23.7605 22.2437 23.8105 22.2537 23.8611 22.2605C23.9117 22.2671 23.9625 22.2706 24.0136 22.2704C24.5054 22.3597 25.9887 21.099 26.5792 20.7554C26.5846 20.7705 26.5941 20.7836 26.5992 20.7989L27.6266 23.8895C27.6394 23.9283 27.6552 23.9661 27.6738 24.0022C27.6926 24.0385 27.7137 24.0731 27.7377 24.1057C27.7617 24.1383 27.7879 24.1688 27.8164 24.197C27.8448 24.2252 27.8754 24.2509 27.9078 24.2739C27.9401 24.297 27.9742 24.3172 28.0098 24.3344C28.0452 24.3518 28.0818 24.3659 28.1195 24.3771C28.1572 24.3881 28.1953 24.396 28.2342 24.4006C28.273 24.4052 28.312 24.4064 28.3511 24.4044C28.3901 24.4026 28.4287 24.3973 28.467 24.3887C28.5052 24.3801 28.5426 24.3683 28.579 24.3535C28.6155 24.3386 28.6506 24.3209 28.6844 24.3C28.7181 24.2791 28.75 24.2556 28.7802 24.2292C28.8105 24.203 28.8384 24.1744 28.8641 24.1433C28.89 24.1123 28.9132 24.0793 28.9341 24.0445C28.9549 24.0095 28.973 23.973 28.9881 23.9349C29.0033 23.897 29.0157 23.858 29.0249 23.8178L29.6835 20.9728C30.012 21.1381 31.4363 22.2783 31.8127 22.207C31.8684 22.2068 31.9238 22.2013 31.9787 22.1903C32.0334 22.1795 32.0868 22.1634 32.1389 22.1423C32.191 22.1211 32.2408 22.0952 32.2884 22.0644C32.336 22.0336 32.3804 21.9986 32.4219 21.9592C32.4636 21.92 32.5012 21.877 32.5355 21.8304C32.5695 21.7839 32.5993 21.7344 32.6249 21.682C32.6504 21.6296 32.6714 21.5753 32.6875 21.5189C32.7037 21.4624 32.7148 21.4051 32.721 21.3466C32.7273 20.9095 33.0631 19.0471 32.8716 18.6449L34.6565 19.1138C34.6028 19.1996 34.562 19.2919 34.5339 19.3904C34.5059 19.4889 34.4919 19.5896 34.4917 19.6925V30.0846L26.4795 31.9199C26.436 31.9298 26.3919 31.9368 26.3473 31.9405C26.3028 31.9441 26.2582 31.9447 26.2136 31.9421C26.169 31.9394 26.1249 31.9335 26.0809 31.9245C26.0372 31.9155 25.994 31.9035 25.9518 31.8884C25.9094 31.8732 25.8683 31.8551 25.8283 31.834C25.7884 31.8129 25.7499 31.7891 25.7131 31.7625C25.6761 31.7361 25.641 31.707 25.6078 31.6755C25.5747 31.6438 25.5438 31.6101 25.5148 31.5741L23.9214 29.5882C23.9618 29.5565 23.9993 29.5213 24.0337 29.4825C24.0683 29.4436 24.0992 29.402 24.1264 29.3573C24.1539 29.3126 24.1773 29.2658 24.1967 29.2167C24.216 29.1676 24.2313 29.1172 24.242 29.0652C24.2528 29.0133 24.2592 28.9607 24.2611 28.9076C24.2631 28.8544 24.2606 28.8015 24.2535 28.7489C24.2464 28.6963 24.2349 28.6446 24.2191 28.5942C24.2033 28.5436 24.1834 28.4951 24.1594 28.4483L22.4033 24.9619L21.825 25.2861L23.5811 28.7725C23.5889 28.7864 23.5952 28.8013 23.6 28.8167C23.6047 28.8321 23.6078 28.848 23.6094 28.8641C23.6108 28.8805 23.6106 28.8966 23.6087 28.9127C23.6068 28.9288 23.6033 28.9446 23.5981 28.9598C23.5929 28.9752 23.5861 28.9897 23.578 29.0034C23.5697 29.0172 23.5601 29.0298 23.5493 29.0414C23.5384 29.0529 23.5266 29.0632 23.5136 29.0718C23.5006 29.0806 23.4868 29.0877 23.4724 29.0934L17.7585 31.6112ZM36.0539 30.6157L38.5155 30.95C38.5747 30.9582 38.6325 30.9718 38.6893 30.991C38.746 31.0103 38.8007 31.0346 38.8533 31.0641C38.9059 31.0938 38.9556 31.1281 39.0025 31.1671C39.0492 31.2062 39.0922 31.2494 39.1316 31.2967C39.1709 31.344 39.2059 31.3945 39.2367 31.4484C39.2674 31.5023 39.2933 31.5587 39.3144 31.6176C39.3355 31.6766 39.3514 31.7369 39.3622 31.7988C39.373 31.8608 39.3783 31.9231 39.3785 31.9861V32.0895H36.0443V32.7811H41.4947C41.524 32.7818 41.5532 32.7853 41.582 32.7915C41.6108 32.7979 41.6389 32.8069 41.6662 32.8184C41.6934 32.83 41.7197 32.8441 41.7445 32.8608C41.7695 32.8773 41.7927 32.8961 41.8144 32.917C41.8361 32.9381 41.8559 32.961 41.8738 32.9858C41.8915 33.0105 41.9072 33.0367 41.9205 33.0644C41.9339 33.0921 41.9448 33.1208 41.9533 33.1507C41.9617 33.1804 41.9676 33.2108 41.9709 33.2416C41.9742 33.2726 41.9749 33.3035 41.973 33.3345C41.971 33.3655 41.9664 33.3961 41.9592 33.4263C41.9521 33.4564 41.9424 33.4857 41.9302 33.5139C41.9181 33.5423 41.9037 33.5693 41.887 33.5947C41.8703 33.6204 41.8514 33.6442 41.8308 33.6662C41.8099 33.6882 41.7875 33.7082 41.7632 33.7259C41.7391 33.7437 41.7138 33.7589 41.6868 33.7719C41.6601 33.7849 41.6325 33.7952 41.6039 33.8029L37.5855 34.7795C36.8733 35.023 35.6332 34.4918 34.9377 34.3331C34.7368 34.2768 34.5327 34.2517 34.325 34.2576C34.1174 34.2634 33.9148 34.3001 33.717 34.3675L26.8224 36.7104C26.7264 36.7427 26.6294 36.7713 26.5316 36.7964C26.4337 36.8215 26.3351 36.8429 26.2358 36.8607C26.1365 36.8787 26.0367 36.8928 25.9365 36.9034C25.8361 36.9139 25.7358 36.9208 25.6351 36.9239C25.5344 36.9271 25.4337 36.9265 25.333 36.9223C25.2323 36.9181 25.132 36.9102 25.0318 36.8986C24.9316 36.8871 24.832 36.8719 24.7328 36.853C24.6337 36.8341 24.5354 36.8116 24.4377 36.7856C24.3401 36.7594 24.2434 36.7299 24.1476 36.6965C24.0519 36.6633 23.9575 36.6267 23.8641 36.5866C23.7709 36.5466 23.679 36.503 23.5886 36.4563C23.4981 36.4094 23.4094 36.3593 23.3223 36.3058C23.2351 36.2525 23.1497 36.196 23.0664 36.1365C22.9828 36.0767 22.9016 36.0143 22.8223 35.9486C22.7429 35.883 22.6658 35.8147 22.591 35.7434C22.5162 35.6721 22.444 35.5983 22.374 35.5218L19.0063 31.8107L23.3203 29.9096L25.0146 32.0211C25.0625 32.081 25.1141 32.1373 25.1693 32.1897C25.2245 32.2423 25.2828 32.2907 25.3441 32.3348C25.4056 32.3788 25.4695 32.4184 25.536 32.4534C25.6025 32.4884 25.6709 32.5185 25.7412 32.5437C25.8117 32.5689 25.8832 32.5888 25.9561 32.6039C26.029 32.6187 26.1026 32.6282 26.1768 32.6326C26.2509 32.637 26.325 32.6361 26.3992 32.6299C26.4731 32.6236 26.5464 32.6121 26.619 32.5952L34.8872 30.7007C35.2709 30.5935 35.6598 30.5651 36.0539 30.6157ZM43.6158 23.1411C43.6158 23.1783 43.6124 23.2149 43.6056 23.2514C43.5986 23.2877 43.5884 23.323 43.575 23.3573C43.5615 23.3916 43.545 23.4242 43.5256 23.4552C43.5059 23.4859 43.4839 23.5145 43.4589 23.5407C43.4341 23.5669 43.407 23.5904 43.3778 23.6111C43.3486 23.6316 43.3177 23.649 43.2853 23.6633C43.2528 23.6774 43.2193 23.6883 43.1849 23.6954C43.1504 23.7027 43.1155 23.7064 43.0804 23.7064H41.1377C41.1025 23.7064 41.0677 23.7027 41.0332 23.6954C40.9986 23.6883 40.9653 23.6774 40.9328 23.6633C40.9004 23.649 40.8695 23.6316 40.8401 23.6111C40.811 23.5904 40.7839 23.5669 40.7591 23.5407C40.7342 23.5145 40.712 23.4859 40.6926 23.4552C40.673 23.4242 40.6565 23.3916 40.6431 23.3573C40.6295 23.323 40.6195 23.2877 40.6125 23.2514C40.6056 23.2149 40.6023 23.1783 40.6023 23.1411V19.3238H43.6158V23.1411Z" fill="black"/>
</g>
<path d="M18.2822 33.0388H18.9369V37.2526H18.2822V33.0388Z" fill="black"/>
<path d="M34.4919 35.6189H35.1466V37.9822H34.4919V35.6189Z" fill="black"/>
<path d="M20.9191 10.2518C20.9456 10.3247 20.976 10.3958 21.0102 10.4651C21.0446 10.5344 21.0824 10.6013 21.1241 10.6659C21.1656 10.7306 21.2106 10.7926 21.2588 10.8518C21.3071 10.911 21.3585 10.967 21.413 11.02C21.4673 11.073 21.5245 11.1224 21.5842 11.1684C21.6441 11.2146 21.7061 11.2568 21.7705 11.2954C21.8349 11.3339 21.9012 11.3684 21.9692 11.3988C22.0375 11.4294 22.1069 11.4556 22.1779 11.4778C22.233 11.4985 22.285 11.5254 22.3342 11.5584C22.3835 11.5916 22.4284 11.6302 22.4694 11.674C22.5104 11.718 22.5462 11.7662 22.5767 11.8186C22.6073 11.8712 22.6319 11.9266 22.6507 11.9848C22.6802 12.068 22.7116 12.1503 22.7453 12.2317C22.779 12.3131 22.8146 12.3933 22.8522 12.4727C22.8899 12.552 22.9295 12.6303 22.9712 12.7074C23.0126 12.7846 23.0562 12.8604 23.1017 12.9352C23.147 13.0098 23.1944 13.0833 23.2434 13.1553C23.2925 13.2273 23.3436 13.2979 23.3962 13.3671C23.4489 13.4362 23.5033 13.5038 23.5593 13.57C23.6154 13.6362 23.6732 13.7007 23.7324 13.7635C23.7918 13.8264 23.8528 13.8874 23.9153 13.947C23.9776 14.0063 24.0415 14.0641 24.1069 14.12C24.1722 14.1757 24.2389 14.2297 24.3069 14.2818C24.375 14.334 24.4442 14.384 24.5149 14.4322C24.5856 14.4806 24.6573 14.5268 24.7302 14.5709C24.8031 14.6151 24.8771 14.6573 24.9521 14.6972C25.0271 14.7372 25.1031 14.7751 25.18 14.8108C25.2571 14.8466 25.3349 14.8801 25.4135 14.9116C25.4922 14.943 25.5715 14.9721 25.6515 14.999C25.7317 15.026 25.8125 15.0505 25.8937 15.0729C25.9751 15.0954 26.0569 15.1154 26.1394 15.1332C26.2217 15.151 26.3045 15.1665 26.3876 15.1795C26.4708 15.1927 26.5541 15.2035 26.6378 15.212C26.7215 15.2204 26.8054 15.2265 26.8894 15.2303C26.9734 15.234 27.0574 15.2353 27.1415 15.2343C27.2255 15.2334 27.3095 15.2299 27.3934 15.2243C27.4772 15.2186 27.5611 15.2105 27.6444 15.2001C27.7279 15.1896 27.8111 15.177 27.8941 15.162C27.9769 15.1467 28.0592 15.1293 28.1413 15.1097C28.2232 15.0899 28.3047 15.0679 28.3854 15.0437C28.4663 15.0194 28.5465 14.9928 28.626 14.964C28.7055 14.9353 28.7843 14.9043 28.8623 14.8709C28.9403 14.8378 29.0173 14.8024 29.0934 14.7648C29.1696 14.7273 29.2448 14.6877 29.3191 14.6459C31.8121 13.1522 32.5665 8.72654 32.4498 5.9416L31.7958 5.98466C31.8387 6.67517 31.8217 7.36385 31.7446 8.05106C31.6677 8.73809 31.5321 9.4121 31.3378 10.0729C30.8587 11.6971 30.4057 13.2317 29.0048 14.0395C28.9411 14.0765 28.8765 14.1117 28.8109 14.1451C28.7453 14.1786 28.679 14.2099 28.6118 14.2396C28.5448 14.2691 28.4769 14.2968 28.4083 14.3225C28.3397 14.3481 28.2705 14.3719 28.2007 14.3936C28.1309 14.4154 28.0606 14.4352 27.9897 14.4527C27.9189 14.4705 27.8477 14.4863 27.7762 14.4998C27.7045 14.5136 27.6326 14.5251 27.5604 14.5347C27.4882 14.5442 27.4158 14.5517 27.3432 14.557C27.2706 14.5625 27.1979 14.5658 27.1251 14.5669C27.0524 14.5682 26.9797 14.5675 26.9069 14.5645C26.8342 14.5616 26.7616 14.5567 26.6892 14.5495C26.6166 14.5424 26.5444 14.5332 26.4725 14.522C26.4005 14.5108 26.3288 14.4976 26.2574 14.4823C26.1863 14.467 26.1154 14.4496 26.0449 14.4304C25.9745 14.411 25.9047 14.3897 25.8352 14.3663C25.7659 14.343 25.6972 14.3177 25.6293 14.2904C25.5613 14.2631 25.4939 14.2339 25.4274 14.2028C25.3609 14.1716 25.2951 14.1386 25.2304 14.1038C25.1654 14.0688 25.1015 14.0322 25.0387 13.9937C24.9757 13.955 24.9137 13.9147 24.8529 13.8727C24.792 13.8306 24.7323 13.7868 24.6736 13.7413C24.6149 13.6959 24.5574 13.6488 24.5012 13.5999C24.4451 13.5511 24.3901 13.5009 24.3364 13.4489C24.2828 13.397 24.2305 13.3435 24.1797 13.2887C24.1288 13.2337 24.0793 13.1775 24.0312 13.1197C23.9833 13.062 23.9368 13.0028 23.8918 12.9425C23.8468 12.8821 23.8034 12.8205 23.7616 12.7576C23.7198 12.6948 23.6797 12.6306 23.6411 12.5656C23.6026 12.5003 23.5658 12.4342 23.5305 12.3667C23.4955 12.2995 23.462 12.2313 23.4304 12.162C23.3988 12.093 23.3689 12.023 23.3409 11.952C23.3128 11.8811 23.2866 11.8095 23.2623 11.7371C23.226 11.629 23.1786 11.5265 23.1201 11.4299C23.0616 11.3334 22.9934 11.245 22.9156 11.1651C22.8376 11.0851 22.7522 11.0154 22.6593 10.9562C22.5663 10.897 22.468 10.8497 22.3647 10.8144C22.3399 10.8069 22.3153 10.7984 22.2909 10.7893C22.2665 10.7799 22.2425 10.77 22.2187 10.7592C22.1949 10.7484 22.1715 10.7369 22.1484 10.7246C22.1253 10.7121 22.1026 10.6991 22.0802 10.6854C22.058 10.6714 22.0361 10.657 22.0146 10.6418C21.993 10.6264 21.972 10.6104 21.9515 10.5939C21.9311 10.5772 21.9109 10.5598 21.8915 10.5421C21.8718 10.5241 21.8529 10.5054 21.8345 10.4864C21.8161 10.4671 21.7982 10.4473 21.7811 10.427C21.7637 10.4066 21.747 10.3857 21.7311 10.3643C21.7149 10.3429 21.6996 10.3209 21.6849 10.2983C21.6701 10.276 21.6561 10.2531 21.6427 10.2296C21.6293 10.2063 21.6165 10.1825 21.6045 10.1583C21.5925 10.1341 21.5812 10.1094 21.5706 10.0845C21.5602 10.0595 21.5503 10.0343 21.5413 10.0086C21.5323 9.98313 21.5239 9.95729 21.5163 9.93109C21.5088 9.90488 21.5021 9.87868 21.496 9.85192C21.4901 9.82535 21.4849 9.79859 21.4804 9.77184C21.476 9.7449 21.4724 9.71778 21.4694 9.69065C21.4666 9.66353 21.4646 9.63623 21.4633 9.60892C21.4621 9.58162 21.4618 9.55431 21.4621 9.52701C21.4625 9.4997 21.4637 9.4724 21.4656 9.44509C21.4677 9.41797 21.4705 9.39066 21.4739 9.36373C21.4776 9.3366 21.4819 9.30966 21.4871 9.28291C21.4922 9.25615 21.4981 9.22958 21.5048 9.20319C21.5116 9.1768 21.5191 9.1506 21.5274 9.12476C21.5356 9.09874 21.5446 9.07326 21.5543 9.04797C21.564 9.02269 21.5746 8.99758 21.5859 8.97302C21.597 8.94847 21.609 8.92409 21.6217 8.90027C21.6343 8.87645 21.6477 8.85317 21.6616 8.83008C21.6757 8.80718 21.6904 8.78464 21.7057 8.76264C21.7212 8.74065 21.7371 8.71921 21.7538 8.69832C21.9765 8.68788 22.1975 8.6613 22.4168 8.61879C22.6363 8.57627 22.8517 8.518 23.0635 8.44433C23.2753 8.37048 23.4812 8.28178 23.6816 8.17806C23.8817 8.07434 24.0743 7.95668 24.2592 7.82511L26.7781 8.01972C26.963 8.0331 27.1474 8.02834 27.3314 8.00543C27.5154 7.98271 27.696 7.94221 27.8729 7.88393C28.0498 7.82584 28.2201 7.75089 28.3838 7.65926C28.5475 7.56763 28.7019 7.46079 28.8468 7.33893C29.66 6.65172 31.1967 5.58718 32.5462 5.9088L32.6536 5.97587L32.6512 5.92694C32.6595 5.9295 32.6684 5.92877 32.6767 5.93134C33.8661 6.26743 33.9986 6.82068 33.1564 7.4793L33.5474 8.03457C33.6085 7.99553 33.667 7.95247 33.7229 7.90537C33.7788 7.85846 33.8317 7.80788 33.8814 7.75364C33.9312 7.69958 33.9774 7.64222 34.0201 7.58174C34.063 7.52127 34.1019 7.45804 34.137 7.39244C34.172 7.32665 34.2029 7.25866 34.2297 7.18884C34.2564 7.11884 34.2788 7.04737 34.2968 6.97425C34.3149 6.90131 34.3284 6.82728 34.3375 6.75251C34.3465 6.67756 34.351 6.60242 34.3508 6.5271C34.2305 5.69017 33.2352 5.38358 32.8604 5.26813C32.7784 5.24266 32.6953 5.23771 32.6128 5.22049C32.5955 5.02147 32.5675 4.8241 32.5293 4.6282C32.4911 4.43248 32.4427 4.23952 32.3842 4.04948C32.3255 3.85944 32.2571 3.67344 32.179 3.49128C32.1008 3.30931 32.0133 3.13247 31.9165 2.96057C31.8198 2.78886 31.7142 2.62338 31.6 2.46395C31.4856 2.30451 31.3633 2.15241 31.2331 2.00746C31.1028 1.86232 30.9653 1.72542 30.8205 1.5966C30.6758 1.46777 30.5248 1.34773 30.3673 1.23668C30.1659 1.10199 29.9564 0.983237 29.7387 0.88043C29.521 0.77744 29.2974 0.691676 29.0679 0.622955C28.8385 0.554051 28.6055 0.503106 28.3692 0.469753C28.1328 0.4364 27.8955 0.42119 27.6569 0.423939C27.455 0.376842 27.2514 0.341474 27.0458 0.317284C26.8403 0.293277 26.6342 0.280816 26.4274 0.280083C26.2206 0.279167 26.0144 0.289979 25.8088 0.312519C25.6031 0.334877 25.3991 0.368779 25.197 0.414043C24.9948 0.459491 24.7953 0.516117 24.5988 0.583922C24.4022 0.651727 24.2097 0.730343 24.0212 0.819956C23.8326 0.909385 23.6491 1.00926 23.4706 1.1194C23.2922 1.22953 23.1196 1.34957 22.9533 1.47913C22.8394 1.57992 22.7293 1.68529 22.6231 1.79506C22.5166 1.90465 22.4144 2.01845 22.3163 2.13647C22.2182 2.2543 22.1245 2.37598 22.0352 2.50151C21.9458 2.62686 21.8611 2.75587 21.7811 2.888C21.701 3.02031 21.6257 3.15556 21.5554 3.29373C21.485 3.43209 21.4198 3.57301 21.3597 3.7165C21.2995 3.85999 21.2444 4.00568 21.1948 4.15375C21.1451 4.30164 21.1008 4.45136 21.062 4.60273C21.0231 4.75428 20.9896 4.90712 20.9616 5.06124C20.9338 5.21536 20.9114 5.37057 20.8948 5.52652C20.8779 5.68248 20.8668 5.83879 20.8614 5.99566C20.8559 6.15253 20.8561 6.30939 20.8618 6.46626C20.8677 6.62295 20.8791 6.77945 20.8962 6.9354C20.9133 7.09117 20.9359 7.2462 20.9642 7.40032C20.9923 7.55444 21.0262 7.70727 21.0654 7.85864C21.1047 8.01001 21.1493 8.15955 21.1993 8.30744C21.1501 8.37543 21.1052 8.44653 21.0644 8.52056C21.0238 8.59442 20.9875 8.67083 20.9559 8.74963C20.9243 8.82843 20.8974 8.90907 20.8751 8.99135C20.8531 9.07381 20.8359 9.1572 20.8238 9.24186C20.8116 9.32634 20.8045 9.41156 20.8024 9.49714C20.8003 9.58272 20.8033 9.66793 20.8113 9.75315C20.8192 9.83836 20.8323 9.92266 20.8503 10.006C20.8684 10.0894 20.8913 10.1715 20.9191 10.2518ZM28.438 6.79851C27.5982 7.64753 25.9581 7.2178 24.9345 7.18334C25.1231 6.86118 25.3389 6.56064 25.5817 6.28191C25.8246 6.00317 26.0904 5.7512 26.3788 5.52616C26.5644 5.41236 26.7555 5.31028 26.9526 5.22012C27.1495 5.13014 27.3507 5.05244 27.5562 4.98738C27.7618 4.92233 27.9701 4.8701 28.1816 4.83088C28.3929 4.79167 28.6057 4.76583 28.8199 4.753C29.0342 4.74017 29.2484 4.74072 29.4626 4.75465C29.6767 4.76839 29.8894 4.79552 30.1007 4.83583C30.3118 4.87615 30.5199 4.92929 30.7253 4.99545C30.9305 5.0616 31.1314 5.14022 31.3278 5.2313C30.7955 5.37167 30.2854 5.57435 29.7974 5.83898C29.3093 6.1036 28.8562 6.42356 28.438 6.79851ZM23.3588 2.02212C23.5257 1.88596 23.7003 1.76244 23.883 1.65157C24.0658 1.5407 24.2547 1.44339 24.45 1.35965C24.6453 1.27608 24.8451 1.20681 25.0493 1.15183C25.2534 1.09704 25.4604 1.05709 25.6698 1.03198C25.5187 1.12691 25.3731 1.23027 25.2326 1.34205C25.0923 1.45366 24.9581 1.57332 24.8302 1.7005C24.7021 1.82768 24.5811 1.96201 24.467 2.1033C24.3529 2.24441 24.2465 2.39193 24.1477 2.54531C24.0489 2.69888 23.9583 2.85758 23.876 3.0216C23.7936 3.18561 23.7199 3.35384 23.655 3.52628C23.5901 3.69891 23.5342 3.87447 23.4875 4.05351C23.4408 4.23237 23.4034 4.41343 23.3755 4.59668L24.0203 4.71562C24.0338 4.61867 24.0507 4.52228 24.0705 4.42644C24.0903 4.33078 24.1132 4.23585 24.1392 4.14166C24.1653 4.04765 24.1942 3.95455 24.2262 3.86256C24.2583 3.77056 24.2932 3.67985 24.3311 3.59024C24.3689 3.50081 24.4097 3.41285 24.4533 3.32617C24.4968 3.23967 24.5432 3.15482 24.5923 3.07162C24.6413 2.98843 24.693 2.90706 24.7474 2.82753C24.8017 2.74799 24.8587 2.67066 24.918 2.59534C24.9774 2.51984 25.039 2.44672 25.1031 2.3758C25.1673 2.30488 25.2337 2.23634 25.3021 2.17019C25.3706 2.10403 25.4413 2.04044 25.5139 1.97942C25.5866 1.91839 25.6611 1.86012 25.7375 1.80441C25.8139 1.7487 25.8922 1.69592 25.9718 1.64589C26.0517 1.59586 26.1331 1.54877 26.2161 1.5046C26.2989 1.46044 26.3831 1.41939 26.4687 1.38127C26.5543 1.34334 26.6409 1.30833 26.7288 1.27645C29.31 0.429803 31.6074 2.78904 31.8725 4.72441C31.4067 4.49406 30.9217 4.32455 30.4177 4.21588C29.9135 4.10739 29.4045 4.06267 28.8904 4.0821C28.6385 4.08338 28.388 4.10262 28.1389 4.14001C27.8896 4.17739 27.6439 4.23255 27.4017 4.30549C27.1595 4.37824 26.9232 4.46804 26.6929 4.57506C26.4623 4.6819 26.2397 4.80486 26.0251 4.94395C24.8967 5.69164 24.8915 6.41257 23.9793 7.19709C23.8208 7.3162 23.6552 7.42286 23.4823 7.51724C23.3093 7.61161 23.1311 7.6928 22.9474 7.7606C22.7637 7.82841 22.5764 7.88228 22.3856 7.92205C22.1946 7.962 22.0021 7.98747 21.8078 7.99865C21.7653 7.8689 21.7274 7.73769 21.6942 7.60502C21.6611 7.47216 21.6326 7.33838 21.609 7.20332C21.5854 7.06844 21.5666 6.93265 21.5526 6.79631C21.5387 6.65978 21.5295 6.52289 21.5253 6.38581C21.521 6.24855 21.5217 6.11148 21.5271 5.97422C21.5326 5.83714 21.543 5.70043 21.5581 5.56409C21.5734 5.42775 21.5934 5.29232 21.6184 5.15763C21.6432 5.02275 21.6727 4.88934 21.7071 4.75685C21.7415 4.62454 21.7805 4.49369 21.8241 4.36431C21.8679 4.23512 21.9159 4.10775 21.9687 3.98222C22.0215 3.85688 22.0786 3.73355 22.1401 3.6126C22.2015 3.49165 22.2672 3.37345 22.3371 3.25763C22.4071 3.14199 22.4809 3.02911 22.5588 2.91916C22.6368 2.80938 22.7186 2.70273 22.804 2.59937C22.8896 2.49602 22.9786 2.39614 23.0712 2.29975C23.1637 2.20336 23.2597 2.11081 23.3588 2.02212Z" fill="black"/>
</svg>
