<svg width="64" height="38" viewBox="0 0 64 38" fill="none" xmlns="http://www.w3.org/2000/svg">
<path d="M18.09 19.2948C18.09 18.8753 17.7683 18.5352 17.3707 18.5352H9.71969C9.32212 18.5352 9.00024 18.8753 9.00024 19.2948C9.00024 19.7142 9.32212 20.0545 9.71969 20.0545H17.3707C17.7683 20.0545 18.09 19.7142 18.09 19.2948Z" fill="black"/>
<path d="M17.3707 6.51172H9.71969C9.32212 6.51172 9.00024 6.85203 9.00024 7.27132C9.00024 7.69079 9.32212 8.0311 9.71969 8.0311H17.3707C17.7683 8.0311 18.09 7.69079 18.09 7.27132C18.09 6.85203 17.7683 6.51172 17.3707 6.51172Z" fill="black"/>
<mask id="mask0_2014_193" style="mask-type:luminance" maskUnits="userSpaceOnUse" x="4" y="12" width="12" height="3">
<path d="M4.28345 12.479H15.2001V14.0741H4.28345V12.479Z" fill="white"/>
</mask>
<g mask="url(#mask0_2014_193)">
<path d="M5.00272 14.0424H14.4753C14.8725 14.0424 15.1942 13.7023 15.1942 13.2828C15.1942 12.8633 14.8725 12.5232 14.4753 12.5232H5.00272C4.60515 12.5232 4.28345 12.8633 4.28345 13.2828C4.28345 13.7023 4.60515 14.0424 5.00272 14.0424Z" fill="black"/>
</g>
<path d="M51.3677 31.2412C50.5583 31.2412 49.9019 31.9341 49.9019 32.7894C49.9019 33.6444 50.5583 34.3373 51.3677 34.3373C52.1774 34.3373 52.8338 33.6444 52.8338 32.7894C52.8338 31.9341 52.1774 31.2412 51.3677 31.2412Z" fill="black"/>
<path d="M24.0034 31.2412C23.1935 31.2412 22.5376 31.9341 22.5376 32.7894C22.5376 33.6444 23.1935 34.3373 24.0034 34.3373C24.8131 34.3373 25.469 33.6444 25.469 32.7894C25.469 31.9341 24.8131 31.2412 24.0034 31.2412Z" fill="black"/>
<path d="M54.3758 22.1889H46.2371V13.5931H49.0515L54.3758 19.2171V22.1889ZM44.7986 12.0737V23.7077H55.8144V18.5879L49.6468 12.0737H44.7986Z" fill="black"/>
<mask id="mask1_2014_193" style="mask-type:luminance" maskUnits="userSpaceOnUse" x="15" y="0" width="45" height="38">
<path d="M15.9111 0.0129395H59.4167V37.9999H15.9111V0.0129395Z" fill="white"/>
</mask>
<g mask="url(#mask1_2014_193)">
<path d="M57.9781 31.2948C57.9781 31.6883 57.6748 32.0086 57.3026 32.0086H56.4254C56.0651 29.3985 53.9382 27.3851 51.3677 27.3851C48.7974 27.3851 46.6701 29.3985 46.3101 32.0086H29.0606C28.7005 29.3985 26.5736 27.3851 24.003 27.3851C21.4337 27.3851 19.3071 29.3976 18.9462 32.0073C18.0887 31.9994 17.3925 31.2613 17.3925 30.3536V26.3027H42.6075V9.78862H48.0063C49.6667 9.78862 51.2273 10.4714 52.4017 11.7115L56.1578 15.6777C57.3316 16.9178 57.9781 18.5664 57.9781 20.32V31.2948ZM51.3677 36.6745C49.3394 36.6745 47.6887 34.9317 47.6887 32.7893C47.6887 30.647 49.3394 28.9044 51.3677 28.9044C53.3964 28.9044 55.0465 30.647 55.0465 32.7893C55.0465 34.9317 53.3964 36.6745 51.3677 36.6745ZM24.003 36.6745C21.9747 36.6745 20.325 34.9317 20.325 32.7893C20.325 30.647 21.9747 28.9044 24.003 28.9044C26.0313 28.9044 27.6818 30.647 27.6818 32.7893C27.6818 34.9317 26.0313 36.6745 24.003 36.6745ZM53.4188 10.6375C51.9733 9.11039 50.0509 8.26979 48.0063 8.26979H42.6075V2.41531C42.6075 1.09018 41.5872 0.0124512 40.332 0.0124512H18.229C16.9748 0.0124512 15.9543 1.09018 15.9543 2.41531V4.53686C15.9543 4.95634 16.2757 5.29609 16.6733 5.29609C17.0708 5.29609 17.3925 4.95634 17.3925 4.53686V2.41531C17.3925 1.92803 17.7677 1.53146 18.229 1.53146H40.332C40.7932 1.53146 41.1693 1.92803 41.1693 2.41531V24.7839H17.3925V22.3994C17.3925 21.9799 17.0708 21.6396 16.6733 21.6396C16.2757 21.6396 15.9543 21.9799 15.9543 22.3994V30.3536C15.9543 32.0969 17.2922 33.5142 18.9398 33.5256C19.2818 36.1573 21.4186 38.1933 24.003 38.1933C26.5873 38.1933 28.7241 36.1586 29.067 33.528H46.304C46.6469 36.1586 48.7837 38.1933 51.3677 38.1933C53.9521 38.1933 56.0889 36.1586 56.4318 33.528H57.3026C58.4686 33.528 59.4167 32.5263 59.4167 31.2948V20.32C59.4167 18.1607 58.6203 16.1309 57.1747 14.6039L53.4188 10.6375Z" fill="black"/>
</g>
</svg>
