<svg width="64" height="38" viewBox="0 0 64 38" fill="none" xmlns="http://www.w3.org/2000/svg">
<g clip-path="url(#clip0_2017_1193)">
<path d="M41.8096 8.63631C41.8096 3.87422 38.1405 0 33.6308 0C22.7806 0.474084 22.7839 16.8004 33.6308 17.2728C38.1405 17.2728 41.8096 13.3984 41.8096 8.63631ZM27.0875 8.63631C27.0875 4.82678 30.023 1.72719 33.6308 1.72719C42.2987 2.07446 42.2971 15.1991 33.6308 15.5454C30.023 15.5454 27.0875 12.4458 27.0875 8.63631Z" fill="black"/>
<path d="M21.1708 23.3638L19.9326 35.1232C19.8566 35.8548 20.079 36.5887 20.5444 37.1372C21.0097 37.6857 21.6746 38 22.3715 38H44.8889C46.3088 38.0328 47.516 36.6103 47.3271 35.1232L46.0896 23.3638C45.9357 21.9026 45.1007 20.6366 43.8543 19.9776L38.9028 17.3642C38.6729 17.2425 38.4014 17.2425 38.1708 17.3642C35.3269 18.8653 31.9311 18.8653 29.088 17.3642C28.8583 17.2425 28.5868 17.2425 28.3561 17.3642L23.4045 19.9776C22.1606 20.6366 21.3246 21.9018 21.1708 23.3638ZM31.3708 36.2728L33.4785 25.8858C33.5791 25.9151 33.6805 25.9142 33.7819 25.8858L35.8904 36.2728H31.3708ZM32.2427 22.4545H35.0194C35.2574 22.4466 35.3588 22.8009 35.1567 22.9337L33.6307 24.0072L32.1045 22.9337C31.9041 22.8 32.0031 22.4466 32.2427 22.4545ZM24.1382 21.5227L28.7323 19.0976C31.8297 20.589 35.4333 20.5899 38.5307 19.0976L43.1239 21.5227C43.8715 21.9174 44.3729 22.6774 44.4653 23.5548L45.7028 35.314C45.7665 35.8099 45.3649 36.2856 44.8906 36.2728H37.5647L35.264 24.934L36.0647 24.3701C37.6031 23.3336 36.8498 20.691 35.021 20.7264H32.2451C31.204 20.7271 30.359 21.6194 30.359 22.7162C30.3149 23.8165 31.2163 24.4287 31.9989 24.9349L29.6982 36.2735H22.3724C21.9651 36.2735 21.5144 35.8978 21.5594 35.3149L22.7969 23.5557C22.8892 22.6774 23.3899 21.9174 24.1382 21.5227Z" fill="black"/>
<path d="M26.2696 26.7728H29.5412C30.6103 26.7684 30.6118 25.0498 29.5412 25.0454H26.2696C25.2007 25.0498 25.199 26.7684 26.2696 26.7728Z" fill="black"/>
</g>
<defs>
<clipPath id="clip0_2017_1193">
<rect width="64" height="38" fill="white"/>
</clipPath>
</defs>
</svg>
