<svg width="56" height="31" viewBox="0 0 56 31" fill="none" xmlns="http://www.w3.org/2000/svg">
<path d="M29.8142 28.0747H26.0002C25.9684 28.0747 25.9372 28.0717 25.906 28.0656C25.875 28.0594 25.8448 28.0505 25.8155 28.0385C25.7862 28.0266 25.7584 28.0119 25.7321 27.9947C25.7058 27.9774 25.6813 27.9576 25.659 27.9357C25.6365 27.9135 25.6165 27.8896 25.599 27.8636C25.5814 27.8377 25.5665 27.8104 25.5543 27.7815C25.5422 27.7527 25.5331 27.7231 25.5268 27.6924C25.5208 27.6619 25.5176 27.631 25.5176 27.5997V17.0803C25.5176 17.0492 25.5208 17.0182 25.5268 16.9877C25.5331 16.9571 25.5422 16.9273 25.5543 16.8986C25.5665 16.8698 25.5814 16.8424 25.599 16.8166C25.6166 16.7905 25.6365 16.7666 25.659 16.7445C25.6813 16.7225 25.7058 16.7028 25.7321 16.6855C25.7584 16.6681 25.7863 16.6535 25.8155 16.6416C25.8448 16.6297 25.875 16.6207 25.906 16.6146C25.9372 16.6085 25.9684 16.6055 26.0002 16.6055H29.8142C29.8458 16.6055 29.8772 16.6085 29.9082 16.6146C29.9394 16.6207 29.9694 16.6297 29.9988 16.6416C30.0281 16.6535 30.0559 16.6681 30.0822 16.6855C30.1086 16.7028 30.1329 16.7225 30.1554 16.7445C30.1777 16.7666 30.1978 16.7905 30.2154 16.8166C30.233 16.8424 30.2477 16.8698 30.2599 16.8986C30.272 16.9273 30.2812 16.9571 30.2874 16.9877C30.2936 17.0182 30.2967 17.0492 30.2967 17.0803V27.5997C30.2967 27.631 30.2936 27.6619 30.2874 27.6924C30.2812 27.7231 30.272 27.7527 30.2599 27.7815C30.2477 27.8104 30.233 27.8377 30.2154 27.8636C30.1978 27.8896 30.1777 27.9135 30.1554 27.9357C30.1329 27.9576 30.1086 27.9774 30.0822 27.9947C30.0559 28.0119 30.0281 28.0266 29.9988 28.0385C29.9694 28.0505 29.9394 28.0594 29.9082 28.0656C29.8772 28.0717 29.8458 28.0747 29.8142 28.0747Z" fill="black"/>
<path d="M43.2905 28.0748H39.4804C39.4487 28.0748 39.4174 28.0718 39.3862 28.0656C39.3551 28.0595 39.325 28.0505 39.2957 28.0386C39.2664 28.0266 39.2386 28.012 39.2123 27.9948C39.1859 27.9774 39.1616 27.9577 39.1392 27.9357C39.1167 27.9136 39.0967 27.8897 39.0792 27.8637C39.0616 27.8378 39.0467 27.8104 39.0346 27.7816C39.0224 27.7527 39.0133 27.7231 39.0071 27.6925C39.001 27.662 38.9978 27.631 38.9978 27.5998V10.7246C38.9978 10.6935 39.001 10.6625 39.0071 10.632C39.0133 10.6014 39.0224 10.5718 39.0346 10.5429C39.0467 10.5141 39.0616 10.4867 39.0792 10.4608C39.0967 10.4348 39.1167 10.4109 39.1392 10.3888C39.1616 10.3668 39.1859 10.3471 39.2123 10.3297C39.2386 10.3124 39.2664 10.2979 39.2957 10.2859C39.325 10.274 39.3551 10.265 39.3862 10.2589C39.4174 10.2527 39.4487 10.2498 39.4804 10.2498H43.2905C43.3222 10.2498 43.3535 10.2527 43.3847 10.2589C43.4156 10.265 43.4459 10.274 43.4752 10.2859C43.5044 10.2979 43.5322 10.3124 43.5586 10.3297C43.5849 10.3471 43.6093 10.3668 43.6317 10.3888C43.6541 10.4109 43.674 10.4348 43.6917 10.4608C43.7093 10.4867 43.7242 10.5141 43.7363 10.5429C43.7485 10.5718 43.7576 10.6014 43.7638 10.632C43.7699 10.6625 43.7731 10.6935 43.7731 10.7246V27.5998C43.7731 27.631 43.7699 27.662 43.7637 27.6925C43.7576 27.7231 43.7485 27.7527 43.7363 27.7816C43.7242 27.8104 43.7093 27.8378 43.6917 27.8637C43.674 27.8897 43.6541 27.9136 43.6317 27.9357C43.6093 27.9577 43.5849 27.9774 43.5586 27.9948C43.5322 28.012 43.5044 28.0266 43.4752 28.0386C43.4459 28.0505 43.4156 28.0595 43.3847 28.0656C43.3535 28.0718 43.3222 28.0748 43.2905 28.0748Z" fill="black"/>
<path d="M36.5503 28.0747H32.7403C32.7088 28.0742 32.6778 28.0706 32.6471 28.0642C32.6164 28.0578 32.5867 28.0485 32.558 28.0364C32.5291 28.0241 32.5018 28.0095 32.4758 27.992C32.45 27.9747 32.4259 27.9549 32.4039 27.9329C32.382 27.911 32.3623 27.887 32.3451 27.8613C32.3278 27.8355 32.3132 27.8083 32.3014 27.7797C32.2895 27.7512 32.2806 27.7219 32.2745 27.6915C32.2684 27.6612 32.2654 27.6307 32.2654 27.5997V20.6779C32.2654 20.6468 32.2684 20.6159 32.2746 20.5854C32.2809 20.5547 32.29 20.525 32.3021 20.4963C32.3143 20.4674 32.3292 20.4401 32.3467 20.4141C32.3643 20.3882 32.3843 20.3643 32.4067 20.3422C32.4291 20.3202 32.4534 20.3004 32.4799 20.2831C32.5062 20.2658 32.534 20.2511 32.5633 20.2393C32.5926 20.2273 32.6227 20.2182 32.6538 20.2122C32.6848 20.2061 32.7162 20.2031 32.748 20.2031H36.5503C36.582 20.2031 36.6133 20.2061 36.6445 20.2122C36.6755 20.2182 36.7057 20.2273 36.735 20.2393C36.7642 20.2511 36.792 20.2658 36.8184 20.2831C36.8447 20.3004 36.8692 20.3202 36.8915 20.3422C36.914 20.3643 36.9339 20.3882 36.9515 20.4141C36.9691 20.4401 36.984 20.4674 36.9962 20.4963C37.0083 20.525 37.0174 20.5547 37.0236 20.5854C37.0297 20.6159 37.0329 20.6468 37.0329 20.6779V27.5997C37.0329 27.631 37.0297 27.6619 37.0236 27.6924C37.0174 27.723 37.0083 27.7526 36.9962 27.7815C36.984 27.8104 36.9691 27.8377 36.9515 27.8636C36.9339 27.8896 36.914 27.9135 36.8915 27.9356C36.8692 27.9576 36.8447 27.9773 36.8184 27.9947C36.792 28.0119 36.7642 28.0265 36.735 28.0385C36.7057 28.0504 36.6755 28.0594 36.6445 28.0655C36.6133 28.0717 36.582 28.0747 36.5503 28.0747Z" fill="black"/>
<path d="M23.0742 28.0749H19.2602C19.2285 28.0749 19.1972 28.0719 19.166 28.0657C19.135 28.0596 19.1048 28.0506 19.0755 28.0387C19.0463 28.0267 19.0184 28.0121 18.9921 27.9949C18.9658 27.9775 18.9413 27.9578 18.919 27.9358C18.8965 27.9137 18.8766 27.8898 18.859 27.8638C18.8414 27.8379 18.8265 27.8105 18.8144 27.7817C18.8022 27.7528 18.7931 27.7232 18.7869 27.6926C18.7808 27.6621 18.7776 27.6311 18.7776 27.5999V24.8609C18.7776 24.8297 18.7808 24.7988 18.7869 24.7683C18.7931 24.7376 18.8022 24.708 18.8144 24.6792C18.8265 24.6503 18.8414 24.6229 18.859 24.5971C18.8766 24.5711 18.8965 24.5471 18.919 24.525C18.9413 24.503 18.9658 24.4833 18.9921 24.466C19.0184 24.4488 19.0463 24.4341 19.0755 24.4222C19.1048 24.4102 19.135 24.4012 19.166 24.3951C19.1972 24.389 19.2285 24.386 19.2602 24.386H23.0742C23.1058 24.386 23.1372 24.389 23.1682 24.3951C23.1994 24.4012 23.2296 24.4102 23.2588 24.4222C23.2881 24.4341 23.3159 24.4488 23.3422 24.466C23.3686 24.4833 23.3929 24.503 23.4154 24.525C23.4377 24.5471 23.4578 24.5711 23.4754 24.5971C23.493 24.6229 23.5079 24.6503 23.5199 24.6792C23.5321 24.708 23.5412 24.7376 23.5474 24.7683C23.5536 24.7988 23.5567 24.8297 23.5567 24.8609V27.5999C23.5567 27.6311 23.5536 27.6621 23.5474 27.6926C23.5412 27.7232 23.5321 27.7528 23.5199 27.7817C23.5079 27.8105 23.493 27.8379 23.4754 27.8638C23.4578 27.8898 23.4377 27.9137 23.4154 27.9358C23.3929 27.9578 23.3686 27.9775 23.3422 27.9949C23.3159 28.0121 23.2881 28.0267 23.2588 28.0387C23.2296 28.0506 23.1994 28.0596 23.1682 28.0657C23.1372 28.0719 23.1058 28.0749 23.0742 28.0749Z" fill="black"/>
<path d="M39.4072 7.89811C39.3754 7.89811 39.3441 7.89512 39.313 7.88899C39.282 7.88286 39.2518 7.87389 39.2224 7.86193C39.1933 7.84997 39.1653 7.83547 39.139 7.81813C39.1128 7.80079 39.0883 7.78106 39.066 7.75908C39.0435 7.73695 39.0236 7.71303 39.006 7.68702C38.9884 7.66116 38.9735 7.6338 38.9613 7.60495C38.9492 7.57609 38.94 7.54649 38.9338 7.51585C38.9277 7.48535 38.9246 7.4544 38.9246 7.42331V2.76568H34.1958C34.164 2.76568 34.1327 2.76254 34.1016 2.75656C34.0706 2.75043 34.0403 2.74146 34.011 2.7295C33.9819 2.71754 33.9541 2.70289 33.9276 2.68555C33.9014 2.66836 33.8769 2.64862 33.8546 2.6265C33.8321 2.60452 33.8122 2.58045 33.7946 2.55459C33.7769 2.52873 33.762 2.50137 33.7499 2.47252C33.7377 2.44366 33.7286 2.41406 33.7226 2.38341C33.7163 2.35277 33.7131 2.32197 33.7131 2.29073C33.7131 2.25963 33.7163 2.22868 33.7226 2.19819C33.7286 2.16754 33.7377 2.13779 33.7499 2.10908C33.762 2.08023 33.7769 2.05287 33.7946 2.02701C33.8122 2.001 33.8321 1.97708 33.8546 1.95495C33.8769 1.93298 33.9014 1.91324 33.9276 1.8959C33.9541 1.87856 33.9819 1.86391 34.011 1.8521C34.0403 1.84014 34.0706 1.83117 34.1016 1.82504C34.1327 1.81891 34.164 1.81592 34.1958 1.81592H39.4072C39.4388 1.81592 39.4702 1.81891 39.5014 1.82504C39.5323 1.83117 39.5626 1.84014 39.5917 1.8521C39.6211 1.86391 39.6489 1.87856 39.6753 1.8959C39.7016 1.91324 39.7259 1.93298 39.7484 1.95495C39.7707 1.97708 39.7907 2.001 39.8084 2.02701C39.826 2.05287 39.8409 2.08023 39.8529 2.10908C39.865 2.13779 39.8743 2.16754 39.8804 2.19819C39.8866 2.22868 39.8896 2.25963 39.8896 2.29073V7.42331C39.8896 7.4544 39.8866 7.48535 39.8804 7.51585C39.8743 7.54649 39.865 7.57609 39.8529 7.60495C39.8409 7.6338 39.826 7.66116 39.8084 7.68702C39.7907 7.71303 39.7707 7.73695 39.7484 7.75908C39.7259 7.78106 39.7016 7.80079 39.6753 7.81813C39.6489 7.83547 39.6211 7.84997 39.5917 7.86193C39.5626 7.87389 39.5323 7.88286 39.5014 7.88899C39.4702 7.89512 39.4388 7.89811 39.4072 7.89811Z" fill="black"/>
<path d="M17.1293 16.9741C17.0822 16.9743 17.0361 16.9677 16.991 16.9545C16.9461 16.9415 16.9038 16.9222 16.8643 16.8971C16.825 16.8719 16.7902 16.8415 16.7597 16.8062C16.7293 16.771 16.7047 16.7321 16.6858 16.6898C16.667 16.6475 16.6547 16.6032 16.6489 16.5573C16.6431 16.5114 16.6442 16.4657 16.6521 16.4201C16.6599 16.3745 16.6741 16.331 16.6949 16.2894C16.7158 16.2479 16.742 16.2102 16.7741 16.1762L23.5064 9.02648C23.5277 9.00047 23.552 8.97715 23.579 8.95696C23.6062 8.93663 23.6354 8.91989 23.6667 8.90658C23.698 8.89328 23.7305 8.88401 23.7641 8.87863C23.7976 8.87325 23.8315 8.8719 23.8654 8.87459C23.9342 8.87609 23.9998 8.89089 24.0623 8.91929C24.1247 8.94784 24.1788 8.98731 24.2244 9.03799L27.9226 13.2169L38.7314 2.19963C38.753 2.17541 38.7767 2.15344 38.8028 2.13385C38.829 2.11442 38.8568 2.09768 38.8864 2.08362C38.9158 2.06972 38.9465 2.05881 38.9783 2.05103C39.0102 2.04326 39.0424 2.03862 39.0752 2.03728C39.108 2.03593 39.1405 2.03788 39.1729 2.04311C39.2052 2.04834 39.2367 2.05671 39.2674 2.06822C39.2979 2.07974 39.3271 2.09409 39.3547 2.11158C39.3824 2.12892 39.4079 2.1488 39.4314 2.17123C39.455 2.1938 39.4759 2.21832 39.4943 2.24508C39.5127 2.27169 39.5282 2.29995 39.5408 2.32985C39.5534 2.3596 39.5627 2.39039 39.5689 2.42194C39.5751 2.45363 39.578 2.48562 39.5776 2.51792C39.5771 2.55021 39.5735 2.58205 39.5665 2.61359C39.5593 2.64514 39.5492 2.67564 39.5358 2.70509C39.5226 2.73454 39.5063 2.76235 39.4872 2.78851C39.468 2.81482 39.4465 2.83889 39.4223 2.86072L28.2585 14.2577C28.2103 14.3036 28.1552 14.3391 28.093 14.364C28.0311 14.389 27.9665 14.4017 27.8994 14.4021C27.8311 14.4008 27.7661 14.386 27.7041 14.3576C27.6423 14.329 27.589 14.2896 27.5442 14.2387L23.8538 10.0598L17.4843 16.8221C17.4385 16.8707 17.3848 16.9083 17.3229 16.9347C17.2611 16.9611 17.1966 16.9743 17.1293 16.9741Z" fill="black"/>
<path d="M14.6239 28.1849H11.9951C11.9633 28.1849 11.932 28.1819 11.9009 28.1758C11.8699 28.1696 11.8397 28.1607 11.8103 28.1487C11.7812 28.1367 11.7534 28.1221 11.7269 28.1049C11.7007 28.0875 11.6762 28.0678 11.6539 28.0457C11.6314 28.0237 11.6115 27.9998 11.5939 27.9738C11.5763 27.9479 11.5614 27.9206 11.5492 27.8917C11.5371 27.8629 11.5279 27.8333 11.5217 27.8026C11.5156 27.7721 11.5125 27.7412 11.5125 27.7099C11.5125 27.6788 11.5156 27.6479 11.5217 27.6174C11.5279 27.5867 11.5371 27.557 11.5492 27.5283C11.5614 27.4994 11.5763 27.4721 11.5939 27.4462C11.6115 27.4202 11.6314 27.3963 11.6539 27.3741C11.6762 27.3522 11.7007 27.3324 11.7269 27.3151C11.7534 27.2977 11.7812 27.2832 11.8103 27.2713C11.8397 27.2593 11.8699 27.2504 11.9009 27.2442C11.932 27.2381 11.9633 27.2351 11.9951 27.2351H14.6239C14.6556 27.2351 14.6869 27.2381 14.7181 27.2442C14.7492 27.2504 14.7793 27.2593 14.8086 27.2713C14.8379 27.2832 14.8657 27.2977 14.892 27.3151C14.9183 27.3324 14.9427 27.3522 14.9651 27.3741C14.9875 27.3963 15.0076 27.4202 15.0251 27.4462C15.0427 27.4721 15.0576 27.4994 15.0697 27.5283C15.0819 27.557 15.091 27.5867 15.0972 27.6174C15.1033 27.6479 15.1065 27.6788 15.1065 27.7099C15.1065 27.7412 15.1033 27.7721 15.0972 27.8026C15.091 27.8333 15.0819 27.8629 15.0697 27.8917C15.0576 27.9206 15.0427 27.9479 15.0251 27.9738C15.0076 27.9998 14.9875 28.0237 14.9651 28.0457C14.9427 28.0678 14.9183 28.0875 14.892 28.1049C14.8657 28.1221 14.8379 28.1367 14.8086 28.1487C14.7793 28.1607 14.7492 28.1696 14.7181 28.1758C14.6869 28.1819 14.6556 28.1849 14.6239 28.1849Z" fill="black"/>
<path d="M14.6239 23.136H11.9951C11.9633 23.136 11.932 23.1329 11.9009 23.1269C11.8699 23.1208 11.8397 23.1118 11.8103 23.0999C11.7812 23.0879 11.7534 23.0733 11.7269 23.0559C11.7007 23.0386 11.6762 23.019 11.6539 22.9969C11.6314 22.9749 11.6115 22.9508 11.5939 22.925C11.5763 22.8989 11.5614 22.8716 11.5492 22.8429C11.5371 22.814 11.5279 22.7843 11.5217 22.7538C11.5156 22.7231 11.5125 22.6923 11.5125 22.6611C11.5125 22.63 11.5156 22.599 11.5217 22.5684C11.5279 22.5379 11.5371 22.5081 11.5492 22.4794C11.5614 22.4506 11.5763 22.4232 11.5939 22.3972C11.6115 22.3714 11.6314 22.3474 11.6539 22.3253C11.6762 22.3033 11.7007 22.2836 11.7269 22.2663C11.7534 22.2489 11.7812 22.2343 11.8103 22.2223C11.8397 22.2105 11.8699 22.2014 11.9009 22.1954C11.932 22.1893 11.9633 22.1863 11.9951 22.1863H14.6239C14.6556 22.1863 14.6869 22.1893 14.7181 22.1954C14.7492 22.2014 14.7793 22.2105 14.8086 22.2223C14.8379 22.2343 14.8657 22.2489 14.892 22.2663C14.9183 22.2836 14.9427 22.3033 14.9651 22.3253C14.9875 22.3474 15.0076 22.3714 15.0251 22.3972C15.0427 22.4232 15.0576 22.4506 15.0697 22.4794C15.0819 22.5081 15.091 22.5379 15.0972 22.5684C15.1033 22.599 15.1065 22.63 15.1065 22.6611C15.1065 22.6923 15.1033 22.7231 15.0972 22.7538C15.091 22.7843 15.0819 22.814 15.0697 22.8429C15.0576 22.8716 15.0427 22.8989 15.0251 22.925C15.0076 22.9508 14.9875 22.9749 14.9651 22.9969C14.9427 23.019 14.9183 23.0386 14.892 23.0559C14.8657 23.0733 14.8379 23.0879 14.8086 23.0999C14.7793 23.1118 14.7492 23.1208 14.7181 23.1269C14.6869 23.1329 14.6556 23.136 14.6239 23.136Z" fill="black"/>
<path d="M14.6239 18.0643H11.9951C11.9633 18.0643 11.932 18.0613 11.9009 18.0551C11.8699 18.049 11.8397 18.04 11.8103 18.0281C11.7812 18.0161 11.7534 18.0015 11.7269 17.9843C11.7007 17.9669 11.6762 17.9472 11.6539 17.9252C11.6314 17.9031 11.6115 17.8792 11.5939 17.8532C11.5763 17.8273 11.5614 17.8 11.5492 17.7711C11.5371 17.7422 11.5279 17.7126 11.5217 17.682C11.5156 17.6515 11.5125 17.6206 11.5125 17.5893C11.5125 17.5582 11.5156 17.5273 11.5217 17.4968C11.5279 17.4661 11.5371 17.4365 11.5492 17.4077C11.5614 17.3788 11.5763 17.3515 11.5939 17.3256C11.6115 17.2996 11.6314 17.2757 11.6539 17.2535C11.6762 17.2316 11.7007 17.2118 11.7269 17.1945C11.7534 17.1771 11.7812 17.1626 11.8103 17.1507C11.8397 17.1387 11.8699 17.1298 11.9009 17.1236C11.932 17.1175 11.9633 17.1145 11.9951 17.1145H14.6239C14.6556 17.1145 14.6869 17.1175 14.7181 17.1236C14.7492 17.1298 14.7793 17.1387 14.8086 17.1507C14.8379 17.1626 14.8657 17.1771 14.892 17.1945C14.9183 17.2118 14.9427 17.2316 14.9651 17.2535C14.9875 17.2757 15.0076 17.2996 15.0251 17.3256C15.0427 17.3515 15.0576 17.3788 15.0697 17.4077C15.0819 17.4365 15.091 17.4661 15.0972 17.4968C15.1033 17.5273 15.1065 17.5582 15.1065 17.5893C15.1065 17.6206 15.1033 17.6515 15.0972 17.682C15.091 17.7126 15.0819 17.7422 15.0697 17.7711C15.0576 17.8 15.0427 17.8273 15.0251 17.8532C15.0076 17.8792 14.9875 17.9031 14.9651 17.9252C14.9427 17.9472 14.9183 17.9669 14.892 17.9843C14.8657 18.0015 14.8379 18.0161 14.8086 18.0281C14.7793 18.04 14.7492 18.049 14.7181 18.0551C14.6869 18.0613 14.6556 18.0643 14.6239 18.0643Z" fill="black"/>
<path d="M14.6239 13.0003H11.9951C11.9633 13.0003 11.932 12.9973 11.9009 12.9912C11.8699 12.9851 11.8397 12.9761 11.8103 12.9641C11.7812 12.9522 11.7534 12.9377 11.7269 12.9203C11.7007 12.903 11.6762 12.8832 11.6539 12.8613C11.6314 12.8391 11.6115 12.8152 11.5939 12.7892C11.5763 12.7633 11.5614 12.736 11.5492 12.7071C11.5371 12.6783 11.5279 12.6487 11.5217 12.618C11.5156 12.5875 11.5125 12.5566 11.5125 12.5255C11.5125 12.4942 11.5156 12.4633 11.5217 12.4328C11.5279 12.4022 11.5371 12.3726 11.5492 12.3437C11.5614 12.3149 11.5763 12.2875 11.5939 12.2616C11.6115 12.2356 11.6314 12.2117 11.6539 12.1896C11.6762 12.1676 11.7007 12.1479 11.7269 12.1305C11.7534 12.1133 11.7812 12.0987 11.8103 12.0867C11.8397 12.0748 11.8699 12.0658 11.9009 12.0597C11.932 12.0535 11.9633 12.0505 11.9951 12.0505H14.6239C14.6556 12.0505 14.6869 12.0535 14.7181 12.0597C14.7492 12.0658 14.7793 12.0748 14.8086 12.0867C14.8379 12.0987 14.8657 12.1133 14.892 12.1305C14.9183 12.1479 14.9427 12.1676 14.9651 12.1896C14.9875 12.2117 15.0076 12.2356 15.0251 12.2616C15.0427 12.2875 15.0576 12.3149 15.0697 12.3437C15.0819 12.3726 15.091 12.4022 15.0972 12.4328C15.1033 12.4633 15.1065 12.4942 15.1065 12.5255C15.1065 12.5566 15.1033 12.5875 15.0972 12.618C15.091 12.6487 15.0819 12.6783 15.0697 12.7071C15.0576 12.736 15.0427 12.7633 15.0251 12.7892C15.0076 12.8152 14.9875 12.8391 14.9651 12.8613C14.9427 12.8832 14.9183 12.903 14.892 12.9203C14.8657 12.9377 14.8379 12.9522 14.8086 12.9641C14.7793 12.9761 14.7492 12.9851 14.7181 12.9912C14.6869 12.9973 14.6556 13.0003 14.6239 13.0003Z" fill="black"/>
<path d="M14.6239 7.94H11.9951C11.9633 7.94 11.932 7.93686 11.9009 7.93088C11.8699 7.92475 11.8397 7.91578 11.8103 7.90382C11.7812 7.89186 11.7534 7.87721 11.7269 7.85987C11.7007 7.84253 11.6762 7.82294 11.6539 7.80082C11.6314 7.77884 11.6115 7.75477 11.5939 7.72891C11.5763 7.70289 11.5614 7.67554 11.5492 7.64683C11.5371 7.61798 11.5279 7.58823 11.5217 7.55773C11.5156 7.52708 11.5125 7.49629 11.5125 7.46504C11.5125 7.43395 11.5156 7.403 11.5217 7.37235C11.5279 7.34185 11.5371 7.3121 11.5492 7.2834C11.5614 7.25455 11.5763 7.22719 11.5939 7.20118C11.6115 7.17531 11.6314 7.15124 11.6539 7.12927C11.6762 7.10729 11.7007 7.08756 11.7269 7.07022C11.7534 7.05287 11.7812 7.03822 11.8103 7.02626C11.8397 7.01445 11.8699 7.00533 11.9009 6.99935C11.932 6.99322 11.9633 6.99023 11.9951 6.99023H14.6239C14.6556 6.99023 14.6869 6.99322 14.7181 6.99935C14.7492 7.00533 14.7793 7.01445 14.8086 7.02626C14.8379 7.03822 14.8657 7.05287 14.892 7.07022C14.9183 7.08756 14.9427 7.10729 14.9651 7.12927C14.9875 7.15124 15.0076 7.17531 15.0251 7.20118C15.0427 7.22719 15.0576 7.25455 15.0697 7.2834C15.0819 7.3121 15.091 7.34185 15.0972 7.37235C15.1033 7.403 15.1065 7.43395 15.1065 7.46504C15.1065 7.49629 15.1033 7.52708 15.0972 7.55773C15.091 7.58823 15.0819 7.61798 15.0697 7.64683C15.0576 7.67554 15.0427 7.70289 15.0251 7.72891C15.0076 7.75477 14.9875 7.77884 14.9651 7.80082C14.9427 7.82294 14.9183 7.84253 14.892 7.85987C14.8657 7.87721 14.8379 7.89186 14.8086 7.90382C14.7793 7.91578 14.7492 7.92475 14.7181 7.93088C14.6869 7.93686 14.6556 7.94 14.6239 7.94Z" fill="black"/>
<path d="M14.6239 2.8797H11.9951C11.9633 2.8797 11.932 2.87671 11.9009 2.87058C11.8699 2.86445 11.8397 2.85548 11.8103 2.84352C11.7812 2.83171 11.7534 2.81706 11.7269 2.79971C11.7007 2.78237 11.6762 2.76264 11.6539 2.74066C11.6314 2.71854 11.6115 2.69462 11.5939 2.6686C11.5763 2.64274 11.5614 2.61538 11.5492 2.58653C11.5371 2.55783 11.5279 2.52808 11.5217 2.49743C11.5156 2.46693 11.5125 2.43598 11.5125 2.40489C11.5125 2.37364 11.5156 2.34285 11.5217 2.3122C11.5279 2.28155 11.5371 2.25195 11.5492 2.2231C11.5614 2.19424 11.5763 2.16689 11.5939 2.14102C11.6115 2.11501 11.6314 2.09109 11.6539 2.06911C11.6762 2.04699 11.7007 2.02726 11.7269 2.01006C11.7534 1.99272 11.7812 1.97807 11.8103 1.96611C11.8397 1.95415 11.8699 1.94518 11.9009 1.93905C11.932 1.93307 11.9633 1.92993 11.9951 1.92993H14.6239C14.6556 1.92993 14.6869 1.93307 14.7181 1.93905C14.7492 1.94518 14.7793 1.95415 14.8086 1.96611C14.8379 1.97807 14.8657 1.99272 14.892 2.01006C14.9183 2.02726 14.9427 2.04699 14.9651 2.06911C14.9875 2.09109 15.0076 2.11501 15.0251 2.14102C15.0427 2.16689 15.0576 2.19424 15.0697 2.2231C15.0819 2.25195 15.091 2.28155 15.0972 2.3122C15.1033 2.34285 15.1065 2.37364 15.1065 2.40489C15.1065 2.43598 15.1033 2.46693 15.0972 2.49743C15.091 2.52808 15.0819 2.55783 15.0697 2.58653C15.0576 2.61538 15.0427 2.64274 15.0251 2.6686C15.0076 2.69462 14.9875 2.71854 14.9651 2.74066C14.9427 2.76264 14.9183 2.78237 14.892 2.79971C14.8657 2.81706 14.8379 2.83171 14.8086 2.84352C14.7793 2.85548 14.7492 2.86445 14.7181 2.87058C14.6869 2.87671 14.6556 2.8797 14.6239 2.8797Z" fill="black"/>
<path d="M44.0046 30.9924H11.9951C11.9633 30.9924 11.932 30.9894 11.9009 30.9833C11.8699 30.9771 11.8397 30.9682 11.8103 30.9562C11.7812 30.9444 11.7534 30.9297 11.7269 30.9124C11.7007 30.8951 11.6762 30.8753 11.6539 30.8533C11.6314 30.8312 11.6115 30.8073 11.5939 30.7813C11.5763 30.7554 11.5614 30.7281 11.5492 30.6992C11.5371 30.6705 11.5279 30.6408 11.5217 30.6101C11.5156 30.5796 11.5125 30.5487 11.5125 30.5176V0.48243C11.5125 0.451335 11.5156 0.420388 11.5217 0.389741C11.5279 0.359244 11.5371 0.329493 11.5492 0.30064C11.5614 0.271787 11.5761 0.244429 11.5937 0.218566C11.6113 0.192553 11.6314 0.168633 11.6537 0.146507C11.6762 0.124531 11.7005 0.104797 11.7269 0.0874554C11.7532 0.0701136 11.781 0.0554627 11.8103 0.0435029C11.8397 0.031543 11.8697 0.0225731 11.9009 0.0164437C11.932 0.0104637 11.9633 0.00732422 11.9951 0.00732422C12.0268 0.00732422 12.0581 0.0104637 12.0893 0.0164437C12.1202 0.0225731 12.1505 0.031543 12.1798 0.0435029C12.2091 0.0554627 12.2369 0.0701136 12.2632 0.0874554C12.2896 0.104797 12.3139 0.124531 12.3364 0.146507C12.3587 0.168633 12.3788 0.192553 12.3964 0.218566C12.4139 0.244429 12.4288 0.271787 12.4409 0.30064C12.4531 0.329493 12.4622 0.359244 12.4684 0.389741C12.4745 0.420388 12.4775 0.451335 12.4775 0.48243V30.0426H44.0046C44.0363 30.0426 44.0676 30.0458 44.0988 30.0517C44.1299 30.0579 44.16 30.0668 44.1893 30.0788C44.2186 30.0907 44.2464 30.1054 44.2727 30.1227C44.299 30.1399 44.3234 30.1597 44.3458 30.1818C44.3682 30.2038 44.3881 30.2278 44.4058 30.2537C44.4234 30.2796 44.4383 30.3069 44.4504 30.3358C44.4626 30.3646 44.4717 30.3942 44.4779 30.4249C44.484 30.4555 44.4872 30.4863 44.4872 30.5176C44.4872 30.5487 44.484 30.5796 44.4779 30.6101C44.4717 30.6408 44.4626 30.6705 44.4504 30.6992C44.4383 30.7281 44.4234 30.7554 44.4058 30.7813C44.3881 30.8073 44.3682 30.8312 44.3458 30.8533C44.3234 30.8753 44.299 30.8951 44.2727 30.9124C44.2464 30.9297 44.2186 30.9444 44.1893 30.9562C44.16 30.9682 44.1297 30.9771 44.0988 30.9833C44.0676 30.9894 44.0363 30.9924 44.0046 30.9924Z" fill="black"/>
</svg>
