<svg xmlns="http://www.w3.org/2000/svg" xmlns:xlink="http://www.w3.org/1999/xlink" width="1920" zoomAndPan="magnify" viewBox="0 0 1440 809.999993" height="1080" preserveAspectRatio="xMidYMid meet" version="1.0"><path fill="#000000" d="M 738.679688 8.882812 C 738.003906 8.335938 737.300781 7.820312 736.578125 7.332031 C 735.855469 6.84375 735.113281 6.390625 734.351562 5.964844 C 733.589844 5.542969 732.8125 5.148438 732.015625 4.792969 C 731.222656 4.433594 730.414062 4.109375 729.589844 3.820312 C 728.769531 3.53125 727.9375 3.277344 727.09375 3.058594 C 726.25 2.839844 725.398438 2.65625 724.539062 2.507812 C 723.679688 2.359375 722.816406 2.25 721.945312 2.175781 C 721.078125 2.101562 720.207031 2.066406 719.335938 2.066406 C 718.464844 2.066406 717.59375 2.101562 716.726562 2.175781 C 715.855469 2.25 714.992188 2.359375 714.132812 2.507812 C 713.273438 2.65625 712.421875 2.839844 711.578125 3.058594 C 710.734375 3.277344 709.902344 3.53125 709.082031 3.820312 C 708.257812 4.109375 707.449219 4.433594 706.65625 4.792969 C 705.859375 5.148438 705.082031 5.542969 704.320312 5.964844 C 703.558594 6.390625 702.816406 6.84375 702.09375 7.332031 C 701.371094 7.820312 700.667969 8.335938 699.988281 8.882812 L 253.667969 357.203125 L 292.148438 406.269531 L 346.90625 363.972656 L 346.90625 748.035156 C 346.898438 750.074219 346.992188 752.105469 347.1875 754.136719 C 347.378906 756.164062 347.671875 758.179688 348.066406 760.179688 C 348.457031 762.179688 348.949219 764.15625 349.535156 766.105469 C 350.121094 768.058594 350.804688 769.976562 351.582031 771.859375 C 352.359375 773.746094 353.226562 775.585938 354.183594 777.386719 C 355.140625 779.183594 356.1875 780.933594 357.316406 782.628906 C 358.449219 784.324219 359.660156 785.960938 360.949219 787.535156 C 362.242188 789.113281 363.609375 790.621094 365.050781 792.0625 C 366.492188 793.503906 368 794.871094 369.574219 796.164062 C 371.152344 797.457031 372.785156 798.667969 374.480469 799.796875 C 376.175781 800.929688 377.921875 801.972656 379.722656 802.933594 C 381.519531 803.890625 383.363281 804.757812 385.246094 805.535156 C 387.128906 806.3125 389.046875 806.996094 391 807.582031 C 392.949219 808.167969 394.925781 808.660156 396.925781 809.050781 C 398.925781 809.445312 400.9375 809.738281 402.964844 809.929688 C 404.996094 810.125 407.027344 810.21875 409.066406 810.210938 L 1030.238281 810.210938 C 1032.277344 810.210938 1034.304688 810.113281 1036.332031 809.914062 C 1038.359375 809.710938 1040.371094 809.414062 1042.367188 809.015625 C 1044.363281 808.621094 1046.335938 808.125 1048.285156 807.535156 C 1050.230469 806.941406 1052.148438 806.257812 1054.027344 805.476562 C 1055.90625 804.699219 1057.746094 803.828125 1059.542969 802.871094 C 1061.335938 801.910156 1063.082031 800.863281 1064.773438 799.734375 C 1066.464844 798.601562 1068.101562 797.390625 1069.671875 796.097656 C 1071.246094 794.804688 1072.753906 793.441406 1074.195312 792 C 1075.632812 790.558594 1077 789.054688 1078.289062 787.480469 C 1079.582031 785.90625 1080.792969 784.269531 1081.921875 782.578125 C 1083.054688 780.882812 1084.101562 779.140625 1085.058594 777.34375 C 1086.019531 775.546875 1086.890625 773.710938 1087.667969 771.828125 C 1088.445312 769.945312 1089.132812 768.03125 1089.722656 766.082031 C 1090.3125 764.132812 1090.808594 762.160156 1091.203125 760.164062 C 1091.601562 758.167969 1091.902344 756.15625 1092.101562 754.128906 C 1092.300781 752.101562 1092.398438 750.070312 1092.398438 748.035156 L 1092.398438 363.761719 L 1147.160156 406.058594 L 1185.640625 357.414062 Z M 780.96875 749.089844 L 657.492188 749.089844 L 657.492188 499.535156 L 782.234375 499.535156 Z M 843.125 749.089844 L 843.125 499.535156 C 843.125 497.523438 843.03125 495.519531 842.835938 493.519531 C 842.640625 491.519531 842.351562 489.53125 841.964844 487.558594 C 841.578125 485.585938 841.097656 483.636719 840.523438 481.710938 C 839.945312 479.785156 839.277344 477.890625 838.519531 476.03125 C 837.761719 474.167969 836.914062 472.347656 835.976562 470.570312 C 835.039062 468.792969 834.019531 467.0625 832.917969 465.382812 C 831.816406 463.703125 830.632812 462.078125 829.371094 460.515625 C 828.109375 458.949219 826.777344 457.449219 825.371094 456.011719 C 823.964844 454.574219 822.492188 453.210938 820.953125 451.917969 C 819.414062 450.625 817.816406 449.410156 816.160156 448.269531 C 814.503906 447.132812 812.796875 446.078125 811.039062 445.105469 C 809.28125 444.132812 807.476562 443.246094 805.632812 442.449219 C 803.789062 441.652344 801.910156 440.945312 799.996094 440.332031 C 798.082031 439.714844 796.144531 439.195312 794.183594 438.765625 C 792.21875 438.339844 790.238281 438.007812 788.242188 437.773438 C 786.246094 437.535156 784.246094 437.398438 782.234375 437.359375 L 657.492188 437.359375 C 655.457031 437.359375 653.425781 437.457031 651.402344 437.65625 C 649.375 437.855469 647.363281 438.15625 645.367188 438.550781 C 643.371094 438.949219 641.398438 439.445312 639.449219 440.035156 C 637.5 440.625 635.585938 441.3125 633.707031 442.089844 C 631.824219 442.871094 629.988281 443.738281 628.191406 444.699219 C 626.394531 445.660156 624.652344 446.707031 622.960938 447.835938 C 621.265625 448.96875 619.632812 450.179688 618.058594 451.472656 C 616.484375 452.761719 614.980469 454.128906 613.539062 455.570312 C 612.101562 457.007812 610.734375 458.515625 609.441406 460.089844 C 608.152344 461.664062 606.941406 463.296875 605.808594 464.992188 C 604.679688 466.683594 603.632812 468.429688 602.671875 470.226562 C 601.714844 472.019531 600.84375 473.859375 600.066406 475.742188 C 599.285156 477.621094 598.601562 479.539062 598.011719 481.484375 C 597.417969 483.433594 596.925781 485.40625 596.527344 487.40625 C 596.128906 489.402344 595.832031 491.414062 595.632812 493.441406 C 595.433594 495.46875 595.332031 497.5 595.332031 499.535156 L 595.332031 748.035156 L 409.066406 748.035156 L 409.066406 314.90625 L 718.808594 72.753906 L 1030.238281 315.117188 L 1030.238281 748.035156 Z M 843.125 749.089844 " fill-opacity="1" fill-rule="nonzero"/></svg>