<svg width="64" height="38" viewBox="0 0 64 38" fill="none" xmlns="http://www.w3.org/2000/svg">
<g clip-path="url(#clip0_2058_664)">
<path d="M25.2517 10.2234H36.8124C37.0444 10.2234 37.2328 10.0246 37.2328 9.77954C37.2328 9.53453 37.0444 9.33569 36.8124 9.33569H25.2517C25.0197 9.33569 24.8315 9.53453 24.8315 9.77954C24.8315 10.0251 25.0197 10.2234 25.2517 10.2234Z" fill="black"/>
<path d="M18.8922 12.2105H22.7674C22.9994 12.2105 23.1875 12.0116 23.1875 11.7666V7.79346C23.1875 7.54844 22.9994 7.34961 22.7674 7.34961H18.8922C18.6601 7.34961 18.4719 7.54844 18.4719 7.79346V11.7672C18.4719 12.0122 18.6601 12.2105 18.8922 12.2105ZM19.3124 8.2373H22.3471V11.3235H19.3124V8.2373Z" fill="black"/>
<path d="M18.8922 19.1492H22.7674C22.9994 19.1492 23.1875 18.9504 23.1875 18.7054V14.7322C23.1875 14.4872 22.9994 14.2883 22.7674 14.2883H18.8922C18.6601 14.2883 18.4719 14.4872 18.4719 14.7322V18.7054C18.4719 18.9509 18.6601 19.1492 18.8922 19.1492ZM19.3124 15.1758H22.3471V18.2615H19.3124V15.1758Z" fill="black"/>
<path d="M18.8922 26.0885H22.7674C22.9994 26.0885 23.1875 25.8896 23.1875 25.6446V21.6709C23.1875 21.4259 22.9994 21.2271 22.7674 21.2271H18.8922C18.6601 21.2271 18.4719 21.4259 18.4719 21.6709V25.6446C18.4719 25.8896 18.6601 26.0885 18.8922 26.0885ZM19.3124 22.1146H22.3471V25.201H19.3124V22.1146Z" fill="black"/>
<path d="M18.8922 33.0274H22.7674C22.9994 33.0274 23.1875 32.8286 23.1875 32.5836V28.6097C23.1875 28.3648 22.9994 28.166 22.7674 28.166H18.8922C18.6601 28.166 18.4719 28.3648 18.4719 28.6097V32.5836C18.4719 32.8286 18.6601 33.0274 18.8922 33.0274ZM19.3124 29.0535H22.3471V32.1397H19.3124V29.0535Z" fill="black"/>
<path d="M21.3417 8.84713L20.4661 9.77147L20.318 9.61516C20.1539 9.4418 19.8883 9.4418 19.7235 9.61516C19.5593 9.78852 19.5593 10.0691 19.7235 10.2424L20.1685 10.7129C20.2503 10.7992 20.3579 10.843 20.4654 10.843C20.573 10.843 20.6806 10.7997 20.7624 10.7129L21.9352 9.47442C22.0994 9.30106 22.0994 9.01994 21.9352 8.84658C21.7721 8.67377 21.506 8.67377 21.3417 8.84713Z" fill="black"/>
<path d="M49.5992 6.28209L46.5763 4.14661C46.049 3.77496 45.2819 3.93714 44.9301 4.49149L43.0267 7.49671L41.9591 9.18194V1.84674C41.9591 0.864488 41.205 0.0656738 40.2782 0.0656738H15.4272C14.5003 0.0656738 13.7461 0.864488 13.7461 1.84674V36.1589C13.7461 37.1377 14.5003 37.9341 15.4272 37.9341H40.2777C41.2044 37.9341 41.9586 37.1377 41.9586 36.1589V20.5968L48.022 11.0257L49.9254 8.02101C50.2918 7.44357 50.1438 6.66656 49.5992 6.28209ZM21.3756 3.32012C21.5431 4.95788 22.8593 6.23701 24.4541 6.23701H31.253C32.8471 6.23701 34.1633 4.95788 34.3308 3.32012H38.8768V14.0468L37.2216 16.6597C37.1437 16.068 37.3018 16.275 25.2518 16.275C25.0199 16.275 24.8317 16.4739 24.8317 16.7189C24.8317 16.9639 25.0199 17.1627 25.2518 17.1627C25.3813 17.1627 36.7919 17.175 36.9168 17.1402L33.0707 23.2128H25.2503C25.0183 23.2128 24.8299 23.4116 24.8299 23.6564C24.8299 23.9014 25.0183 24.1003 25.2503 24.1003H32.5081L31.9076 25.0483C31.9069 25.0494 31.9069 25.0512 31.9058 25.0523C31.9023 25.0576 31.9018 25.0642 31.899 25.0695C31.8676 25.125 31.851 25.1861 31.8447 25.2493C31.8437 25.2583 31.8374 25.266 31.8369 25.2748L31.6334 30.1527H25.2518C25.0199 30.1527 24.8317 30.3515 24.8317 30.5965C24.8317 30.8414 25.0199 31.0402 25.2518 31.0402H36.8126C37.0445 31.0402 37.2329 30.8414 37.2329 30.5965C37.2329 30.3515 37.0445 30.1527 36.8126 30.1527H33.8418L36.7313 28.7326C36.7341 28.7315 36.7359 28.7279 36.7386 28.7262C36.7862 28.7013 36.8244 28.6604 36.8609 28.6172C36.8725 28.6031 36.8898 28.5954 36.8999 28.58C36.9006 28.5789 36.9022 28.5781 36.9029 28.577L38.8763 25.4617V34.6797H16.8279V3.32012H21.3756ZM33.5095 2.87334C33.5095 2.87444 33.5089 2.87499 33.5089 2.87627C33.5089 2.87737 33.5095 2.87811 33.5095 2.87921V2.9668C33.5095 4.28093 32.497 5.3495 31.253 5.3495H24.4541C23.2095 5.3495 22.1975 4.28038 22.1975 2.9668V0.953917H33.51V2.87334H33.5095ZM32.6437 26.102L35.6992 28.2606L32.4879 29.8391L32.6437 26.102ZM32.8398 25.1725L43.4911 8.35948L44.9407 9.3837L34.29 26.1967L32.8398 25.1725ZM41.1181 1.84674V10.5091L39.7173 12.7202V2.87627C39.7173 2.63126 39.5291 2.43243 39.2971 2.43243H34.3499V0.953184H40.2777C40.7416 0.953184 41.1181 1.35378 41.1181 1.84674ZM41.1181 36.1589C41.1181 36.6484 40.7411 37.0466 40.2777 37.0466H15.4272C14.9638 37.0466 14.5867 36.6484 14.5867 36.1589V1.84674C14.5867 1.35451 14.9638 0.953184 15.4272 0.953184H21.3565V2.43243H16.4077C16.1758 2.43243 15.9874 2.63126 15.9874 2.87627V35.1235C15.9874 35.3685 16.1758 35.5673 16.4077 35.5673H39.2971C39.5291 35.5673 39.7173 35.3685 39.7173 35.1235V24.1353L41.1181 21.9241V36.1589ZM36.4383 27.7143L34.9886 26.69L45.64 9.87721L47.0895 10.9014L36.4383 27.7143ZM49.2272 7.5275L47.5574 10.1636L45.7583 8.89257L43.9589 7.62169L45.6287 4.98574C45.7313 4.8241 45.955 4.77499 46.1095 4.88513L49.1326 7.02043C49.2093 7.07486 49.2614 7.15769 49.2793 7.25353C49.2973 7.34882 49.2787 7.4465 49.2272 7.5275Z" fill="black"/>
</g>
<defs>
<clipPath id="clip0_2058_664">
<rect width="64" height="38" fill="white"/>
</clipPath>
</defs>
</svg>
