<svg width="64" height="38" viewBox="0 0 64 38" fill="none" xmlns="http://www.w3.org/2000/svg">
<mask id="mask0_2014_157" style="mask-type:luminance" maskUnits="userSpaceOnUse" x="13" y="0" width="41" height="38">
<path d="M13.3074 0.046875H53.1556V38H13.3074V0.046875Z" fill="white"/>
</mask>
<g mask="url(#mask0_2014_157)">
<path d="M33.7284 27.0112C33.853 27.2685 33.7563 27.5841 33.5126 27.7149L30.1935 29.5031C30.1216 29.5424 30.044 29.5607 29.9688 29.5607C29.7886 29.5607 29.6143 29.457 29.5268 29.2755C29.402 29.0184 29.4987 28.7027 29.7424 28.572L33.0615 26.7836C33.3053 26.652 33.6036 26.7539 33.7284 27.0112ZM33.0615 24.4444L29.7424 26.2326C29.4987 26.3643 29.402 26.679 29.5268 26.9363C29.6143 27.1175 29.7886 27.2214 29.9688 27.2214C30.0449 27.2214 30.1216 27.2031 30.1935 27.1639L33.5126 25.3755C33.7563 25.2439 33.853 24.9291 33.7284 24.6718C33.6036 24.4156 33.3053 24.3135 33.0615 24.4444ZM53.1049 35.448C52.9909 36.2475 52.5331 37.0035 51.882 37.4698C51.4036 37.8125 50.8261 37.9949 50.2567 37.9949C50.0509 37.9949 49.847 37.9712 49.6487 37.9225C49.0074 37.7654 48.4827 37.361 48.1721 36.7854L44.1226 29.279C43.3575 29.5442 42.561 29.6785 41.7636 29.6785C40.4242 29.6785 39.085 29.3036 37.9001 28.5553L28.6551 33.5375C28.3815 33.6849 28.094 33.7591 27.8065 33.7591C27.519 33.7591 27.2315 33.6849 26.9579 33.5375L14.8227 26.999C13.8733 26.488 13.3074 25.5115 13.3074 24.3876V9.44631C13.3074 8.3224 13.8733 7.34583 14.8227 6.83399L26.9588 0.293761C27.5058 -0.00091508 28.1089 -0.00091508 28.656 0.293761L40.7919 6.83399C41.7405 7.34509 42.3074 8.32148 42.3074 9.44631V13.8225C44.0508 13.9542 45.7577 14.7197 47.0881 16.1227C49.8652 19.0531 50.0131 23.7205 47.5351 26.8386L52.6496 33.5802C53.0412 34.0974 53.2032 34.761 53.1049 35.448ZM40.34 7.76695L36.8937 5.90983L24.0511 12.9078L27.8065 14.9315L40.6747 7.99638C40.5739 7.91007 40.4622 7.83237 40.34 7.76695ZM22.9647 12.322L35.8072 5.32396L32.7046 3.65156L19.8629 10.6496L22.9647 12.322ZM19.2506 16.5002L20.0322 16.0346C20.5586 15.7206 21.2246 15.8977 21.5483 16.4357L22.4424 17.9223V13.2157L19.2506 11.4953V16.5002ZM15.273 7.76695C15.1508 7.83329 15.0391 7.91007 14.9383 7.99638L18.7763 10.0646L31.6188 3.06643L28.2048 1.2258C27.9412 1.08378 27.6735 1.08378 27.4091 1.2258L15.273 7.76695ZM27.3107 32.5549V15.8392L23.4339 13.7501V18.3967C23.4339 18.8047 23.1845 19.1552 22.8134 19.2694C22.7324 19.2947 22.6499 19.306 22.5697 19.306C22.2813 19.306 22.0086 19.1527 21.8468 18.8831L20.7122 16.9972C20.6709 16.9292 20.5867 16.9065 20.5206 16.9466L19.5447 17.5283C19.2754 17.6886 18.9548 17.6861 18.6871 17.5213C18.4194 17.3564 18.26 17.0635 18.26 16.7364V10.9609L14.3798 8.86997C14.3277 9.05139 14.2997 9.24399 14.2997 9.44722V24.3876C14.2997 25.1219 14.6549 25.7339 15.2739 26.0678L27.3107 32.5549ZM36.9846 27.8762C36.7978 27.714 36.6161 27.5414 36.4417 27.3574C33.5069 24.2604 33.5069 19.2206 36.4417 16.1236C37.7952 14.6953 39.5402 13.9271 41.315 13.8164V9.44722C41.315 9.24399 41.2869 9.05139 41.2348 8.86997L28.303 15.8392V32.5549L36.9846 27.8762ZM41.7645 28.6338C43.4384 28.6338 45.1117 27.9616 46.3857 26.617C48.9339 23.9281 48.9339 19.552 46.3857 16.8629C45.1117 15.5185 43.4376 14.8461 41.7645 14.8461C40.0912 14.8461 38.4173 15.5185 37.1431 16.8629C34.595 19.552 34.595 23.9281 37.1431 26.617C38.4164 27.9616 40.0905 28.6338 41.7645 28.6338ZM45.0513 28.8841L45.8371 30.3412L47.835 28.9103L46.8426 27.6015C46.2949 28.1307 45.6909 28.5572 45.0513 28.8841ZM51.8746 34.2343L48.4572 29.7298L46.3296 31.254L49.0348 36.2684C49.2553 36.6782 49.6131 36.8404 49.8742 36.9041C50.356 37.0227 50.8987 36.9102 51.3251 36.6051C51.7523 36.299 52.0506 35.809 52.1249 35.2928C52.1647 35.0129 52.1539 34.6022 51.8746 34.2343ZM47.4226 21.7395C47.4226 23.3344 46.8345 24.834 45.7652 25.9614C44.697 27.0887 43.2758 27.7105 41.7645 27.7105C40.2532 27.7105 38.832 27.0897 37.7638 25.9614C36.6954 24.834 36.1063 23.3344 36.1063 21.7395C36.1063 20.1448 36.6945 18.6452 37.7638 17.5178C39.9699 15.1897 43.5591 15.1897 45.7652 17.5178C46.8336 18.646 47.4226 20.1448 47.4226 21.7395ZM46.4312 21.7395C46.4312 20.4239 45.9461 19.1875 45.0645 18.2571C44.1548 17.2972 42.9601 16.8167 41.7645 16.8167C40.5688 16.8167 39.374 17.2972 38.4645 18.2571C37.5827 19.1875 37.0978 20.4239 37.0978 21.7395C37.0978 23.0553 37.5827 24.2917 38.4645 25.2221C39.3461 26.1523 40.5176 26.6641 41.7645 26.6641C43.0114 26.6641 44.1829 26.1516 45.0645 25.2221C45.9454 24.2917 46.4312 23.0553 46.4312 21.7395Z" fill="black"/>
</g>
</svg>
