<svg width="64" height="38" viewBox="0 0 64 38" fill="none" xmlns="http://www.w3.org/2000/svg">
<mask id="mask0_2017_378" style="mask-type:luminance" maskUnits="userSpaceOnUse" x="11" y="0" width="42" height="38">
<path d="M11.4666 0.046875H52.6733V37.953H11.4666V0.046875Z" fill="white"/>
</mask>
<g mask="url(#mask0_2017_378)">
<path d="M40.1123 0.0856934C39.6642 0.0856934 39.2331 0.262536 38.9081 0.605408L37.8682 1.70275L40.1123 4.0706C40.8989 4.90093 41.1178 6.14616 40.6595 7.18944C41.005 7.01974 41.3711 6.95835 41.7541 6.95835C42.4588 6.95835 43.1225 7.2435 43.6151 7.76688L47.2821 11.6363C47.9388 12.3257 48.2911 13.2283 48.2946 14.2063C48.298 15.1882 47.9423 16.1087 47.2821 16.8053L44.0803 20.1839L42.6026 21.772L28.8102 36.2971L28.9743 36.4703C29.2993 36.8132 29.744 37.019 30.2059 37.019C30.6677 37.019 31.0848 36.8421 31.4098 36.4992L52.1805 14.5818C52.5055 14.2389 52.6732 13.7986 52.6732 13.3113C52.6732 12.824 52.5055 12.3547 52.1805 12.0118L48.4862 8.14237C48.2022 7.84274 47.7609 7.78135 47.4189 7.99796C46.7793 8.40223 45.9241 8.29392 45.3939 7.7381C44.8534 7.16763 44.7506 6.29771 45.1475 5.60115C45.3527 5.23666 45.2946 4.77449 45.0107 4.47505L41.3437 0.605408C41.0187 0.262536 40.5604 0.0856934 40.1123 0.0856934ZM34.0097 1.00967C33.5616 1.00967 33.1031 1.15774 32.7782 1.50061L29.5491 4.90808C29.6038 4.94418 29.6654 4.97314 29.7131 5.02353L30.3427 5.68783C30.6847 6.04867 30.6847 6.62629 30.3427 6.9873C30.1716 7.16763 29.939 7.24716 29.7131 7.24716C29.4874 7.24716 29.2822 7.16763 29.1112 6.9873L28.4817 6.323C28.4338 6.27261 28.4065 6.20755 28.3723 6.14982L12.0076 23.4181C11.3371 24.1291 11.3336 25.2807 12.0076 25.988L15.7019 29.8575C15.9859 30.1571 16.4237 30.2222 16.7692 30.0019C17.4088 29.594 18.264 29.7023 18.7942 30.2618C19.3347 30.8322 19.4373 31.7022 19.0406 32.3987C18.8354 32.7632 18.8935 33.2254 19.1774 33.5248L22.8444 37.3945C23.1694 37.7373 23.614 37.9429 24.0758 37.9429C24.5376 37.9429 24.955 37.7661 25.28 37.4232L41.6447 20.126C41.6003 20.0936 41.5489 20.0828 41.5079 20.0395L40.9058 19.3752C40.5638 19.0144 40.5638 18.4368 40.9058 18.076C41.2479 17.7149 41.7953 17.7149 42.1373 18.076L42.7668 18.7401C42.8078 18.7833 42.818 18.8376 42.8487 18.8845L46.0506 15.5058C46.3756 15.1592 46.5432 14.6938 46.5432 14.2063C46.5432 13.7227 46.3756 13.2752 46.0506 12.9358L42.3836 9.06635C42.0996 8.76672 41.6345 8.70185 41.289 8.92194C40.6493 9.3262 39.794 9.22156 39.2638 8.66208C38.7234 8.09179 38.6208 7.22187 39.0177 6.52513C39.2229 6.16064 39.1647 5.69865 38.8807 5.39902L35.2137 1.50061C34.8888 1.15774 34.4578 1.00967 34.0097 1.00967ZM31.5741 7.36261C31.7965 7.36261 32.0324 7.44196 32.2034 7.62247L32.8055 8.28659C33.1477 8.64761 33.1477 9.22523 32.8055 9.58606C32.6345 9.76657 32.4293 9.87487 32.2034 9.87487C31.9777 9.87487 31.7451 9.76657 31.5741 9.58606L30.9447 8.95089C30.6026 8.58988 30.6026 7.98349 30.9447 7.62247C31.1157 7.44196 31.3517 7.36261 31.5741 7.36261ZM34.0644 9.99032C34.2868 9.99032 34.4954 10.0699 34.6664 10.2504L35.2958 10.9145C35.638 11.2755 35.638 11.8529 35.2958 12.214C35.1248 12.3945 34.8921 12.4738 34.6664 12.4738C34.4406 12.4738 34.2354 12.3945 34.0644 12.214L33.435 11.5498C33.0928 11.1888 33.0928 10.6112 33.435 10.2504C33.606 10.0699 33.842 9.99032 34.0644 9.99032ZM36.5274 12.5893C36.7496 12.5893 36.9857 12.6688 37.1567 12.8491L37.7588 13.5134C38.1008 13.8743 38.1008 14.4519 37.7588 14.8129C37.5878 14.9932 37.3824 15.1015 37.1567 15.1015C36.931 15.1015 36.6984 14.9932 36.5274 14.8129L35.8979 14.1775C35.5558 13.8165 35.5558 13.2101 35.8979 12.8491C36.0689 12.6688 36.305 12.5893 36.5274 12.5893ZM39.0177 15.2172C39.2399 15.2172 39.4486 15.2965 39.6196 15.477L40.2491 16.1411C40.5911 16.5021 40.5911 17.0796 40.2491 17.4406C40.0781 17.6211 39.8454 17.7005 39.6196 17.7005C39.3939 17.7005 39.1887 17.6211 39.0177 17.4406L38.3881 16.7765C38.0461 16.4155 38.0461 15.8378 38.3881 15.477C38.5591 15.2965 38.7953 15.2172 39.0177 15.2172Z" fill="black"/>
</g>
</svg>
